<svg width="205" height="62" viewBox="0 0 205 62" fill="none" xmlns="http://www.w3.org/2000/svg">
<path d="M9.0007 61.9282C7.84861 61.9282 6.69652 61.713 5.54443 61.2106C2.16017 59.8472 0 56.6181 0 52.9583V8.96991C0 4.01852 4.03231 0 9.0007 0C13.9691 0 18.0014 4.01852 18.0014 8.96991V31.3588L45.8676 3.5162C49.3959 0 55.0843 0 58.6126 3.5162C62.1409 7.03241 62.1409 12.7014 58.6126 16.2176L15.3372 59.3449C13.6091 61.0671 11.3769 61.9282 9.0007 61.9282Z" fill="white"/>
<path d="M52.0601 61.9282C57.1106 61.9282 61.2048 57.848 61.2048 52.8148C61.2048 47.7816 57.1106 43.7014 52.0601 43.7014C47.0096 43.7014 42.9154 47.7816 42.9154 52.8148C42.9154 57.848 47.0096 61.9282 52.0601 61.9282Z" fill="#F21905"/>
<path fill-rule="evenodd" clip-rule="evenodd" d="M99.5118 22.6111C99.5118 17.875 103.328 14 108.512 14C113.697 14 117.441 17.8032 117.441 22.6111C117.441 27.3472 113.625 31.2222 108.44 31.2222C103.256 31.2222 99.5118 27.419 99.5118 22.6111ZM112.761 22.6111C112.761 20.2431 111.033 18.162 108.512 18.162C105.992 18.162 104.336 20.1713 104.336 22.6111C104.336 24.9792 106.064 27.0602 108.584 27.0602C111.033 27.0602 112.761 25.0509 112.761 22.6111ZM74.5978 14.3588H81.7264C85.9027 14.3588 88.6389 16.5116 88.6389 20.2431C88.6389 24.1181 85.6147 26.1991 81.5103 26.1991H79.2062V30.9352H74.5978V14.3588ZM81.4383 22.5394C83.0945 22.5394 84.1025 21.6782 84.1025 20.3148C84.1025 18.8796 83.0945 18.162 81.4383 18.162H79.2782V22.5394H81.4383ZM132.202 14.3588H127.306L132.778 31.0069H136.811L140.267 21.463L143.579 31.0069H147.612L153.156 14.3588H148.404L145.523 23.9745L142.283 14.3588H138.323L135.083 23.9745L132.202 14.3588ZM164.461 14.3588H177.782V18.2338H168.997V20.7454H176.99V24.3333H168.997V26.9884H177.926V30.8634H164.461V14.3588ZM197.583 14.3588H189.735V30.9352H194.343V25.912H196.359L199.672 30.9352H205L201.04 25.1944C203.056 24.3333 204.424 22.6111 204.424 20.0995C204.424 18.3773 203.992 17.1574 202.984 16.1528C201.904 15.0046 200.104 14.3588 197.583 14.3588ZM199.816 20.2431C199.816 21.463 198.952 22.2523 197.367 22.2523H194.271V18.3056H197.295C198.88 18.3056 199.816 18.9514 199.816 20.2431Z" fill="white"/>
<path fill-rule="evenodd" clip-rule="evenodd" d="M102.636 46.3752C102.636 44.6032 103.99 43 105.938 43C107.885 43 109.24 44.5188 109.24 46.3752C109.24 48.1471 107.885 49.7503 105.938 49.7503C103.99 49.7503 102.636 48.1471 102.636 46.3752ZM108.478 46.3752C108.478 44.9407 107.377 43.675 105.938 43.675C104.498 43.675 103.398 44.8563 103.398 46.3752C103.398 47.8096 104.498 49.0753 105.938 49.0753C107.377 49.0753 108.478 47.8096 108.478 46.3752ZM77.5734 43.0844H78.2508L81.2142 49.6659H80.4522L79.6902 47.9784H76.1341L75.3721 49.6659H74.61L77.5734 43.0844ZM79.4362 47.219L77.9968 43.9282L76.4728 47.219H79.4362ZM85.3634 43.0844H88.0728C88.8348 43.0844 89.4275 43.2532 89.7662 43.6751C90.0202 43.9282 90.1895 44.2657 90.1895 44.772C90.1895 45.6158 89.6815 46.0377 89.1735 46.2908C89.9355 46.5439 90.6129 46.9658 90.6129 47.894C90.6129 48.9909 89.6815 49.6659 88.2421 49.6659H85.3634V43.0844ZM87.9881 46.0377C88.8348 46.0377 89.5122 45.6158 89.5122 44.8564C89.5122 44.1813 89.0041 43.7594 88.0728 43.7594H86.1254V46.0377H87.9881ZM88.2421 48.9065C89.2581 48.9065 89.8508 48.4846 89.8508 47.7252C89.8508 47.0502 89.2581 46.6283 88.1575 46.6283H86.1254V48.9065H88.2421ZM94.0842 43.7594H96.2856V49.5816H97.0476V43.7594H99.249V43.0844H94.0842V43.7594ZM114.405 43.0844H113.727V49.5816H114.405V44.3501L116.775 47.8096L119.146 44.3501V49.5816H119.908V43.0844H119.146L116.775 46.6283L114.405 43.0844ZM126.936 43.0844H127.613L130.576 49.6659H129.814L129.052 47.9784H125.496L124.734 49.6659H123.972L126.936 43.0844ZM128.714 47.219L127.274 43.9282L125.75 47.219H128.714ZM137.265 43C135.318 43 133.963 44.5188 133.963 46.3752C133.963 48.2315 135.403 49.7503 137.265 49.6659C138.451 49.6659 139.213 49.244 139.89 48.569L139.382 48.0627C138.705 48.6534 138.197 48.9909 137.265 48.9909C135.826 48.9909 134.725 47.8096 134.725 46.2908C134.725 44.772 135.826 43.5906 137.265 43.5906C138.112 43.5906 138.789 44.0125 139.297 44.5188L139.805 44.0125C139.128 43.4219 138.451 43 137.265 43ZM145.647 43.7594H143.531V43.0844H148.695V43.7594H146.494V49.5816H145.732V43.7594H145.647ZM157.501 43.0844H152.844V49.5816H157.586V48.9065H153.522V46.6283H157.078V45.9533H153.522V43.7594H157.501V43.0844ZM161.819 43.0844H164.274C165.714 43.0844 166.73 43.8438 166.73 45.1939C166.73 46.6283 165.544 47.3033 164.19 47.3033H162.581V49.5816H161.819V43.0844ZM164.19 46.6283C165.29 46.6283 165.968 46.0377 165.968 45.1939C165.968 44.2657 165.29 43.7594 164.19 43.7594H162.581V46.6283H164.19ZM173.842 43C171.895 43 170.54 44.5188 170.54 46.3752C170.54 48.2315 171.895 49.7503 173.842 49.6659C175.027 49.6659 175.789 49.244 176.467 48.569L175.959 48.0627C175.281 48.6534 174.773 48.9909 173.842 48.9909C172.403 48.9909 171.302 47.8096 171.302 46.2908C171.302 44.772 172.403 43.5906 173.842 43.5906C174.689 43.5906 175.366 44.0125 175.874 44.5188L176.382 44.0125C175.705 43.4219 175.027 43 173.842 43ZM180.531 43.0844H181.293V46.9658L185.018 43.0844H185.95L183.156 45.9533L186.034 49.5816H185.103L182.563 46.4596L181.208 47.894V49.6659H180.446V43.0844H180.531ZM193.062 43.0844H192.384L189.421 49.6659H190.183L190.945 47.9784H194.501L195.263 49.6659H196.025L193.062 43.0844ZM192.808 43.9282L194.247 47.219H191.284L192.808 43.9282ZM201.613 46.9658C200.597 46.7971 199.835 46.122 199.835 45.0251C199.835 44.5188 200.005 44.0126 200.343 43.7594C200.767 43.3375 201.444 43.0844 202.206 43.0844H205V49.5816H204.238V47.1346H202.375L200.428 49.5816H199.497L201.613 46.9658ZM204.323 43.7594H202.291C201.19 43.7594 200.597 44.2657 200.597 45.1095C200.597 45.9533 201.275 46.4596 202.291 46.4596H204.323V43.7594ZM75.3725 55.2349H74.6105H74.5258V61.8165H75.2878V60.0445L76.6425 58.6101L79.1826 61.7321H80.1139L77.2352 58.1038L80.0293 55.2349H79.0979L75.3725 59.1164V55.2349ZM84.178 55.2349H86.8874C87.6494 55.2349 88.2421 55.4037 88.5808 55.8256C88.8348 56.0787 89.0041 56.4162 89.0041 56.9225C89.0041 57.7663 88.4961 58.1882 87.9881 58.4413C88.7501 58.6945 89.4275 59.1164 89.4275 60.0445C89.4275 61.1414 88.4961 61.8165 87.0567 61.8165H84.178V55.2349ZM86.8027 58.1038C87.6494 58.1038 88.3268 57.6819 88.3268 56.9225C88.3268 56.2475 87.8188 55.8256 86.8874 55.8256H84.94V58.1038H86.8027ZM87.0567 61.0571C88.0728 61.0571 88.6654 60.6352 88.6654 59.8758C88.6654 59.2007 88.0728 58.7788 86.9721 58.7788H84.94V61.0571H87.0567ZM96.5396 55.1506H95.8623L92.8989 61.7321H93.6609L94.4229 60.0445H97.979L98.741 61.7321H99.503L96.5396 55.1506ZM96.2856 56.0787L97.725 59.3695H94.7616L96.2856 56.0787ZM102.89 60.8039L103.313 60.2977C103.99 60.8883 104.668 61.2258 105.599 61.2258C106.361 61.2258 107.123 60.7196 107.123 59.9602C107.123 59.1164 106.361 58.7789 105.345 58.7789H104.668V58.1882H105.345C106.277 58.1882 106.954 57.7663 106.954 56.9225C106.954 56.2475 106.361 55.7412 105.515 55.7412C104.752 55.7412 104.16 55.9944 103.567 56.5006L103.144 55.9944C103.821 55.4037 104.498 55.1506 105.515 55.1506C106.785 55.1506 107.716 55.91 107.716 56.9225C107.716 57.7663 107.123 58.2726 106.531 58.4413C107.293 58.6945 107.885 59.2007 107.885 60.0445C107.885 61.0571 106.954 61.9009 105.599 61.9009C104.498 61.8165 103.652 61.479 102.89 60.8039ZM115.082 55.1506H114.405L111.441 61.7321H112.203L112.965 60.0445H116.521L117.283 61.7321H118.045L115.082 55.1506ZM114.743 56.0787L116.183 59.3695H113.219L114.743 56.0787ZM122.11 55.2349H124.565C126.004 55.2349 127.02 55.9943 127.02 57.3444C127.02 58.7788 125.835 59.4539 124.48 59.4539H122.872V61.7321H122.11V55.2349ZM124.48 58.7788C125.581 58.7788 126.258 58.1882 126.258 57.3444C126.258 56.4162 125.581 55.91 124.48 55.91H122.872V58.7788H124.48ZM133.54 55.1506H132.862L129.899 61.7321H130.661L131.423 60.0445H134.979L135.741 61.7321H136.503L133.54 55.1506ZM133.286 56.0787L134.725 59.3695H131.762L133.286 56.0787Z" fill="#131314"/>
</svg>
