<svg width="32" height="24" viewBox="0 0 32 24" fill="none" xmlns="http://www.w3.org/2000/svg">
<path d="M31.3522 5.18181C31.3522 5.18181 31.0245 2.83633 30.096 1.8C28.8943 0.436359 27.5288 0.436359 26.928 0.381799C22.5038 0.0545604 15.84 0 15.84 0C15.84 0 9.17625 0.0545604 4.752 0.381799C4.15119 0.436359 2.78567 0.49092 1.584 1.8C0.600806 2.8364 0.327752 5.18181 0.327752 5.18181C0.327752 5.18181 0 7.96365 0 10.7455V13.3091C0 16.091 0.327752 18.8183 0.327752 18.8183C0.327752 18.8183 0.655504 21.1637 1.584 22.2001C2.78567 23.5637 4.36967 23.5091 5.07975 23.6728C7.59225 23.9454 15.84 24 15.84 24C15.84 24 22.5038 24 26.928 23.6182C27.5288 23.5636 28.8943 23.5091 30.096 22.2C31.0246 21.1637 31.3522 18.8182 31.3522 18.8182C31.3522 18.8182 31.68 16.0364 31.68 13.3091V10.7454C31.68 7.96365 31.3522 5.18181 31.3522 5.18181Z" fill="#F21905"/>
<path d="M12.48 6.72V18.24L22.08 12.6128L12.48 6.72Z" fill="white"/>
</svg>
