<svg width="154" height="30" viewBox="0 0 154 30" fill="none" xmlns="http://www.w3.org/2000/svg">
<path fill-rule="evenodd" clip-rule="evenodd" d="M14.9773 4.17139C16.5491 4.17139 17.8035 5.4258 17.8035 7.0127C17.8035 8.5996 16.5642 9.85401 14.9773 9.85401C13.4055 9.85401 12.1511 8.5996 12.1511 7.0127C12.1511 5.4258 13.4055 4.17139 14.9773 4.17139Z" fill="white"/>
<path fill-rule="evenodd" clip-rule="evenodd" d="M11.6071 14.0857H14.0252V11.6373C11.9093 11.2141 10.2771 9.29472 10.2771 7.0126C10.2771 4.76071 11.9093 2.84131 14.0403 2.44837V0H10.7909C10.7909 2.07053 9.09825 3.74811 6.99749 3.74811C4.94207 3.74811 3.24937 2.07053 3.24937 0H0V3.23426C2.05542 3.23426 3.76323 4.94207 3.76323 7.0126C3.76323 9.11336 2.07053 10.8212 0 10.8212V14.0857H2.41814C2.84131 11.9547 4.7456 10.3073 6.99749 10.3073C9.27961 10.3073 11.1839 11.9396 11.6071 14.0857Z" fill="white"/>
<path fill-rule="evenodd" clip-rule="evenodd" d="M25.7079 14.9927C25.7079 16.5796 24.4686 17.8038 22.8817 17.8038C21.2948 17.8038 20.0555 16.5796 20.0555 14.9927C20.0555 13.4058 21.2948 12.1514 22.8817 12.1514C24.4686 12.1514 25.7079 13.4058 25.7079 14.9927Z" fill="white"/>
<path fill-rule="evenodd" clip-rule="evenodd" d="M15.8842 11.6373V14.0705H18.3024C18.7255 11.9396 20.6298 10.2922 22.8817 10.2922C25.1487 10.2922 27.0681 11.9396 27.4913 14.0705H29.8792V10.8212C27.854 10.8212 26.1462 9.11336 26.1462 7.0126C26.1462 4.94207 27.8389 3.23426 29.8792 3.23426V0H26.6601C26.6601 2.07053 24.9674 3.74811 22.8666 3.74811C20.8112 3.74811 19.1034 2.07053 19.1034 0H15.854V2.43325C17.9699 2.8262 19.6172 4.7456 19.6172 6.99749C19.6475 9.29472 18.0001 11.2141 15.8842 11.6373Z" fill="white"/>
<path fill-rule="evenodd" clip-rule="evenodd" d="M15.8842 18.3176V15.9146H18.3024C18.7255 17.9851 20.5996 19.6324 22.8515 19.6627C22.8817 19.6627 22.8817 19.6627 22.8817 19.6627C22.9119 19.6627 22.9119 19.6627 22.9422 19.6627C25.179 19.6324 27.0681 17.9851 27.4913 15.9146H29.8792V19.1488C27.854 19.1488 26.1462 20.8566 26.1462 22.9272C26.1462 25.0279 27.8389 26.7357 29.8792 26.7357V30.0002H26.6601C26.6601 27.9297 24.9674 26.2219 22.8666 26.2219C20.8112 26.2219 19.1034 27.9297 19.1034 30.0002H15.854V27.567C17.9396 27.1438 19.587 25.2546 19.6172 23.0027C19.6172 22.9725 19.6172 22.9725 19.6172 22.9423V22.912C19.6172 20.6299 17.9699 18.7407 15.8842 18.3176Z" fill="white"/>
<path fill-rule="evenodd" clip-rule="evenodd" d="M14.0403 18.3175C11.9396 18.7407 10.3073 20.6299 10.2771 22.8818C10.2771 22.912 10.2771 22.912 10.2771 22.912C10.2771 22.9422 10.2771 22.9422 10.2771 22.9724C10.3073 25.2243 11.9396 27.1135 14.0403 27.5367V29.9699H10.7909C10.7909 27.8994 9.09825 26.1916 6.99749 26.1916C4.94207 26.1916 3.23426 27.8994 3.23426 29.9699H0V26.7054C2.05542 26.7054 3.76323 24.9976 3.76323 22.8969C3.76323 20.8263 2.07053 19.1185 0 19.1185V15.8843H2.41814C2.84131 17.9548 4.71537 19.6022 6.96726 19.6324C6.99749 19.6324 6.99749 19.6324 6.99749 19.6324C7.02772 19.6324 7.02772 19.6324 7.05794 19.6324C9.29472 19.6022 11.1839 17.9548 11.6071 15.8843H14.0252V18.3175H14.0403Z" fill="white"/>
<path fill-rule="evenodd" clip-rule="evenodd" d="M4.21655 14.9927C4.21655 13.4058 5.45585 12.1514 7.04275 12.1514C8.61454 12.1514 9.86895 13.4058 9.86895 14.9927C9.86895 16.5796 8.62966 17.8038 7.04275 17.8038C5.45585 17.8038 4.21655 16.5796 4.21655 14.9927Z" fill="white"/>
<path fill-rule="evenodd" clip-rule="evenodd" d="M14.9773 25.7837C13.4055 25.7837 12.1511 24.5293 12.1511 22.9424C12.1511 21.3555 13.3904 20.1011 14.9773 20.1011C16.5491 20.1011 17.8035 21.3555 17.8035 22.9424C17.8035 24.5293 16.5491 25.7837 14.9773 25.7837Z" fill="white"/>
<path fill-rule="evenodd" clip-rule="evenodd" d="M139.451 12.8613C138.151 11.0326 136.202 10.549 133.874 11.486C131.668 12.3928 130.564 14.1006 130.776 16.3979L139.451 12.8613ZM143.91 13.2241C144.151 13.7984 144.242 14.1309 144.363 14.7203L132.242 19.6321C133.451 21.3399 135.582 21.8538 137.789 20.9772C139.33 20.3425 140.086 19.5414 140.645 18.015L144.711 16.3979C144.983 19.9948 142.474 23.1082 139.285 24.3777C134.524 26.2971 129.37 24.2266 127.527 19.6472C125.713 15.0528 127.859 9.92934 132.469 8.0704C137.093 6.21146 141.975 8.35755 143.91 13.2241Z" fill="white"/>
<path fill-rule="evenodd" clip-rule="evenodd" d="M128.358 24.8011V21.1739H120.348L127.784 11.5466V7.91943H115.527V11.5466H122.962L115.527 21.1739V24.8011H128.358Z" fill="white"/>
<path fill-rule="evenodd" clip-rule="evenodd" d="M114.287 24.8316H110.222V7.9197H114.287V24.8316ZM112.292 6.42348C111.144 6.42348 110.267 5.51667 110.267 4.38317C110.267 3.24967 111.144 2.40332 112.292 2.40332C113.411 2.40332 114.318 3.24967 114.318 4.38317C114.318 5.51667 113.411 6.42348 112.292 6.42348Z" fill="white"/>
<path fill-rule="evenodd" clip-rule="evenodd" d="M90.8313 21.5216C87.854 21.5216 85.8288 19.5115 85.8288 16.5493C85.8288 13.4662 87.854 11.2747 90.7709 11.2747C93.6575 11.2747 95.7129 13.4359 95.7129 16.5191C95.7129 19.2848 93.8842 21.5216 90.8313 21.5216ZM107.683 21.0833C107.169 21.0833 106.746 20.6601 106.746 20.1312V11.6374H109.164V7.91956H106.746V2.3125H102.68V7.91956H95.8338V10.2017C94.4434 8.34273 92.7658 7.52661 90.3477 7.52661C85.3452 7.52661 81.7633 11.305 81.7633 16.4586C81.7633 21.5518 85.3149 25.2395 90.257 25.2395C92.6147 25.2395 94.2318 24.4838 95.8338 22.6551V24.8465H99.5366V11.6374H102.695V21.0833C102.695 23.1538 104.388 24.8314 106.459 24.8314H110.464V21.0833H107.683Z" fill="white"/>
<path fill-rule="evenodd" clip-rule="evenodd" d="M76.5491 12.9219C75.2494 11.0932 73.2997 10.6095 70.9723 11.5466C68.7657 12.4534 67.6625 14.1612 67.874 16.4584L76.5491 12.9219ZM81.0076 13.2846C81.2494 13.8287 81.34 14.1914 81.461 14.7808L69.34 19.6927C70.5491 21.4005 72.6801 21.9143 74.8866 21.0378C76.4282 20.403 77.1839 19.602 77.7431 18.0755L81.8086 16.4584C82.0806 20.0554 79.5718 23.1687 76.3829 24.4383C71.6222 26.3577 66.4685 24.2871 64.6247 19.7078C62.8111 15.1133 64.9572 9.98989 69.5667 8.13095C74.1763 6.272 79.0579 8.4181 81.0076 13.2846Z" fill="white"/>
<path fill-rule="evenodd" clip-rule="evenodd" d="M65.5164 11.3656V7.46631H64.3376C62.5844 7.46631 61.7229 7.94994 60.665 9.50661V7.85926H56.932V24.7409H60.9975V15.3555C60.9975 12.7409 62.0857 11.426 65.5164 11.3656Z" fill="white"/>
<path fill-rule="evenodd" clip-rule="evenodd" d="M153.28 11.3656V7.46631H152.101C150.348 7.46631 149.486 7.94994 148.428 9.50661V7.85926H144.695V24.7409H148.761V15.3555C148.761 12.7409 149.849 11.426 153.28 11.3656Z" fill="white"/>
<path fill-rule="evenodd" clip-rule="evenodd" d="M56.9924 19.2548H52.4131C51.4156 20.8417 50.267 21.5067 48.5894 21.5067C45.7934 21.5067 43.6776 19.285 43.6776 16.353C43.6776 13.3908 45.7027 11.2296 48.4987 11.2296C50.3123 11.2296 51.597 12.0155 52.4131 13.5722H56.9924C55.6927 9.67293 52.3224 7.51172 48.4987 7.51172C43.4962 7.51172 39.6121 11.3807 39.6121 16.3833C39.6121 21.2951 43.6171 25.2246 48.6196 25.2246C52.534 25.2397 55.602 23.0785 56.9924 19.2548Z" fill="white"/>
</svg>
