<svg width="83" height="85" viewBox="0 0 83 85" fill="none" xmlns="http://www.w3.org/2000/svg">
<g filter="url(#filter0_dd)">
<path fill-rule="evenodd" clip-rule="evenodd" d="M51.9999 33.1803C51.9999 31.9762 52.9761 31 54.1803 31H62.4101C62.4557 31 62.4964 31.0281 62.5104 31.0715C62.5204 31.1026 62.5271 31.1346 62.5298 31.1671L62.5685 31.6481C62.7863 34.35 60.3842 36.5244 57.7173 36.0395L53.7902 35.3255C52.7535 35.137 51.9999 34.2341 51.9999 33.1803ZM20 48.0001C20 51.86 23.1401 55.0001 27 55.0001C30.8599 55.0001 34 51.86 34 48.0001C34 44.1403 30.8599 41.0001 27 41.0001C23.1401 41.0001 20 44.1403 20 48.0001Z" fill="#31AAFF"/>
</g>
<path fill-rule="evenodd" clip-rule="evenodd" d="M74.9609 19.707L76.8618 29.2119C76.9541 29.668 77 30.1362 77 30.604V58C77 59.103 76.103 60 75 60H60.2358C59.0029 60 58 58.9971 58 57.7642C58 56.9121 58.4731 56.146 59.2349 55.7651L62.0122 54.376C62.0762 54.3442 62.124 54.2822 62.1382 54.2109L62.7798 51H41V48C41 40.2798 34.7202 34 27 34C23.1172 34 19.375 35.6338 16.7329 38.4819L15 40.3511V4H16C18.2549 4 20.2749 4.83008 22.002 6.4668L36.7749 20.4629L45.4648 6.42578C47.9561 2.40186 52.2681 0 57 0V2C52.9658 2 49.2891 4.04785 47.166 7.479L42.2681 15.3911L45.751 23.228L54.896 24.6909L63.9531 15.6328C61.6509 14.793 60 12.5889 60 10V8H57V6H60C60 2.69092 62.6909 0 66 0C69.3091 0 72 2.69092 72 6V10C72 11.7109 71.2759 13.2529 70.123 14.3472C72.5381 15.1118 74.4448 17.124 74.9609 19.707ZM64.8608 50.7969L64.4199 53H69V50.2202C69 44.6758 68.4341 39.123 67.3291 33.686C66.23 33.8442 65.1191 33.939 64 33.9751V36.269C65.0132 36.75 65.6958 37.7861 65.6958 38.9771L66 48.9702C66 49.7852 65.5322 50.4722 64.8608 50.7969ZM74.9092 31.5552C73.0869 32.3359 71.2119 32.9268 69.2988 33.335C70.4228 38.8872 71 44.5581 71 50.2202V53H75V31.5171L74.9092 31.5552ZM74.8599 29.4009L73 20.1001C72.7329 18.7642 71.9409 17.6489 70.8779 16.916C70.9512 17.21 71 17.5122 71 17.8281C71 18.8521 70.602 19.812 69.8789 20.5352L62.1138 28.3008C62.939 29.3662 63.5259 30.6172 63.8071 31.98C67.3691 31.8799 70.8359 31.126 74.1211 29.7178L74.8599 29.4009ZM62 35.8008V33.8208C62 33.1919 61.918 32.582 61.7632 32H53V34.1641L62 35.8008ZM68.4639 19.1211C68.8052 18.7798 69 18.3091 69 17.8281C69 16.8198 68.1802 16 67.1709 16C66.6831 16 66.2241 16.1899 65.8779 16.5352L57.2939 25.1201C58.5801 25.4561 59.7422 26.0581 60.7231 26.8628L68.4639 19.1211ZM70 6C70 3.79395 68.2061 2 66 2C63.7939 2 62 3.79395 62 6H70ZM62 8V10C62 12.2061 63.7939 14 66 14C68.2061 14 70 12.2061 70 10V8H62ZM43.395 22.8501L40.9941 17.4482L38.2578 21.8672L38.4629 22.061L43.395 22.8501ZM35.4902 22L20.626 7.91797C19.5479 6.896 18.332 6.27783 17 6.0752V8.28809C17.7031 8.53418 18.3428 8.9292 18.8789 9.46484L28.6572 19.2422L32.333 22H35.4902ZM19.0436 20.9508C19.0218 20.8023 19 20.6539 19 20.5C19 18.5698 20.5698 17 22.5 17H23.5859L17.4639 10.8789C17.3218 10.7368 17.1641 10.6162 17 10.5068V21H19.0508C19.0484 20.9836 19.046 20.9672 19.0436 20.9508ZM25.5859 19H22.5C21.6729 19 21 19.6729 21 20.5C21 21.3271 21.6729 22 22.5 22H29.0098L27.293 20.707L25.5859 19ZM17 23V35.5122C19.8198 33.2588 23.355 32 27 32C27.7729 32 28.5278 32.0742 29.272 32.1802C30.293 29.5542 30.8672 26.8101 30.9761 24H22.5C21.5498 24 20.6899 23.6172 20.0581 23H17ZM32.9761 24C32.8691 26.9492 32.292 29.8301 31.2559 32.5928C36.4082 34.0181 40.522 37.9512 42.189 43H63.8179L63.6968 39.0068C63.6958 38.479 63.3389 38.064 62.8481 37.9878L51 35.835V30H60.876C59.8311 28.3892 58.1338 27.2329 56.106 26.9092L37.9209 24H32.9761ZM63.8779 45H42.708C42.894 45.9731 43 46.9741 43 48V49H64L63.8779 45ZM60.1299 57.5532C60.0498 57.5928 60 57.6738 60 57.7642C60 57.894 60.106 58 60.2358 58H65V57.7642C65 56.9121 65.4731 56.146 66.2339 55.7651L67.7632 55H63.9712C63.77 55.501 63.4019 55.916 62.9072 56.1641L60.1299 57.5532ZM67 57.7642V58V58.001H75V55.001H70.8501C70.6582 55.5259 70.2871 55.9751 69.7651 56.2358L67.1299 57.5532C67.0498 57.5928 67 57.6738 67 57.7642ZM15 48C15 41.3828 20.3828 36 27 36C33.6172 36 39 41.3828 39 48C39 54.6172 33.6172 60 27 60C20.3828 60 15 54.6172 15 48ZM31.8662 54.4282L32.834 56.105C33.708 55.4741 34.4741 54.708 35.105 53.834L33.4282 52.8662L34.4282 51.1338L36.1089 52.104C36.5449 51.1392 36.8398 50.0981 36.9492 49H35V47H36.9492C36.8398 45.9028 36.5459 44.8608 36.1089 43.896L34.4282 44.8662L33.4282 43.1338L35.105 42.166C34.4741 41.292 33.708 40.5259 32.834 39.895L31.8662 41.5718L30.1338 40.5718L31.104 38.8911C30.1401 38.4551 29.0981 38.1602 28 38.0508V40H26V38.0508C24.9028 38.1602 23.8608 38.4541 22.896 38.8911L23.8662 40.5718L22.1338 41.5718L21.166 39.895C20.292 40.5259 19.5259 41.292 18.895 42.166L20.5718 43.1338L19.5718 44.8662L17.8911 43.896C17.4551 44.8608 17.1602 45.9019 17.0508 47H19V49H17.0508C17.1602 50.0981 17.4551 51.1392 17.8911 52.104L19.5718 51.1338L20.5718 52.8662L18.895 53.834C19.5259 54.708 20.292 55.4741 21.166 56.105L22.1338 54.4282L23.8662 55.4282L22.896 57.1089C23.8608 57.5449 24.9019 57.8398 26 57.9492V56H28V57.9492C29.0972 57.8398 30.1392 57.5459 31.104 57.1089L30.1338 55.4282L31.8662 54.4282ZM22.0001 48C22.0001 45.2432 24.2432 43 27.0001 43C29.7569 43 32.0001 45.2432 32.0001 48C32.0001 50.7568 29.7569 53 27.0001 53C24.2432 53 22.0001 50.7568 22.0001 48ZM24.0001 48C24.0001 49.6538 25.3463 51 27.0001 51C28.6539 51 30.0001 49.6538 30.0001 48C30.0001 46.3462 28.6539 45 27.0001 45C25.3463 45 24.0001 46.3462 24.0001 48ZM25.9999 47H27.9999V49H25.9999V47Z" fill="#2F384F"/>
<defs>
<filter id="filter0_dd" x="0" y="16" width="82.5823" height="69.0001" filterUnits="userSpaceOnUse" color-interpolation-filters="sRGB">
<feFlood flood-opacity="0" result="BackgroundImageFix"/>
<feColorMatrix in="SourceAlpha" type="matrix" values="0 0 0 0 0 0 0 0 0 0 0 0 0 0 0 0 0 0 127 0"/>
<feOffset dy="10"/>
<feGaussianBlur stdDeviation="10"/>
<feColorMatrix type="matrix" values="0 0 0 0 0.215686 0 0 0 0 0.584314 0 0 0 0 0.858824 0 0 0 0.2 0"/>
<feBlend mode="normal" in2="BackgroundImageFix" result="effect1_dropShadow"/>
<feColorMatrix in="SourceAlpha" type="matrix" values="0 0 0 0 0 0 0 0 0 0 0 0 0 0 0 0 0 0 127 0"/>
<feOffset/>
<feGaussianBlur stdDeviation="7.5"/>
<feColorMatrix type="matrix" values="0 0 0 0 0.0235294 0 0 0 0 0.372549 0 0 0 0 0.631373 0 0 0 0.05 0"/>
<feBlend mode="normal" in2="effect1_dropShadow" result="effect2_dropShadow"/>
<feBlend mode="normal" in="SourceGraphic" in2="effect2_dropShadow" result="shape"/>
</filter>
</defs>
</svg>
