<svg width="80" height="90" viewBox="0 0 80 90" fill="none" xmlns="http://www.w3.org/2000/svg">
<path d="M20.7742 29.0322C19.1735 29.0322 17.871 30.3348 17.871 31.9355C17.871 33.5361 19.1735 34.8387 20.7742 34.8387C22.3748 34.8387 23.6774 33.5361 23.6774 31.9355C23.6774 30.3348 22.3748 29.0322 20.7742 29.0322ZM20.7742 32.9032C20.241 32.9032 19.8065 32.4696 19.8065 31.9355C19.8065 31.4013 20.241 30.9677 20.7742 30.9677C21.3074 30.9677 21.7419 31.4013 21.7419 31.9355C21.7419 32.4696 21.3074 32.9032 20.7742 32.9032Z" fill="#2F384F"/>
<path d="M71.0968 0H68.1935H48.8387H34.7494C33.4981 0 32.391 0.797419 31.9952 1.98581L31.6894 2.90323H28.5161C26.9155 2.90323 25.6129 4.20581 25.6129 5.80645V7.05968C22.8181 7.89484 20.7742 10.4855 20.7742 13.5484C20.7742 15.57 21.6684 17.3826 23.0774 18.6242C20.9126 20.2713 19.4261 22.7061 18.9877 25.4081C16.1174 26.1948 14 28.8194 14 31.9355C14 35.67 17.0387 38.7097 20.7742 38.7097H21.7419V36.7742H20.7742C18.1061 36.7742 15.9355 34.6036 15.9355 31.9355C15.9355 29.2674 18.1061 27.0968 20.7742 27.0968C22.4958 27.0968 24.1013 28.0239 24.9655 29.5152L26.6397 28.5455C26.5419 28.3771 26.4287 28.2223 26.3184 28.0645H27.5484V20.3226C31.2839 20.3226 34.3226 17.2839 34.3226 13.5484C34.3226 9.81291 31.2839 6.77419 27.5484 6.77419V5.80645C27.5484 5.27323 27.9829 4.83871 28.5161 4.83871H33.0848L33.8319 2.59742C33.9635 2.20161 34.3323 1.93548 34.7494 1.93548H35.3881C35.8381 4.14097 37.7929 5.80645 40.129 5.80645C42.4652 5.80645 44.42 4.14097 44.87 1.93548H48.8387V12.6058C48.0277 11.9913 47.029 11.6129 45.9355 11.6129C43.2674 11.6129 41.0968 13.7836 41.0968 16.4516C41.0968 19.1197 43.2674 21.2903 45.9355 21.2903C48.2716 21.2903 50.2264 19.6248 50.6764 17.4194H66.2581V28.0645H53.6774V30H68.1935V17.4194V15.4839H71.0968C72.6974 15.4839 74 14.1813 74 12.5806V2.90323C74 1.30258 72.6974 0 71.0968 0ZM25.6129 27.2013C24.4023 25.9723 22.7484 25.2329 20.9919 25.1758C21.501 22.9461 22.8887 20.9797 24.8242 19.7458C25.0787 19.8581 25.3429 19.95 25.6129 20.0313V27.2013ZM32.3871 13.5484C32.3871 16.2165 30.2165 18.3871 27.5484 18.3871C26.5555 18.3871 25.6332 18.0852 24.8639 17.5703L24.8377 17.5161C24.8281 17.521 24.8203 17.5268 24.8106 17.5316C23.5439 16.6577 22.7097 15.2003 22.7097 13.5484C22.7097 10.8803 24.8803 8.70968 27.5484 8.70968C30.2165 8.70968 32.3871 10.8803 32.3871 13.5484ZM40.129 3.87097C38.869 3.87097 37.8045 3.05903 37.4039 1.93548H42.8532C42.4535 3.05903 41.389 3.87097 40.129 3.87097ZM45.9355 19.3548C44.3348 19.3548 43.0323 18.0523 43.0323 16.4516C43.0323 14.851 44.3348 13.5484 45.9355 13.5484C47.5361 13.5484 48.8387 14.851 48.8387 16.4516C48.8387 18.0523 47.5361 19.3548 45.9355 19.3548ZM60.4516 15.4839H50.7742V1.93548H53.7026C53.0881 2.74645 52.7097 3.74516 52.7097 4.83871C52.7097 7.50678 54.8803 9.67742 57.5484 9.67742C58.6419 9.67742 59.6406 9.29903 60.4516 8.68452V15.4839ZM57.5484 7.74194C55.9477 7.74194 54.6452 6.43936 54.6452 4.83871C54.6452 3.23807 55.9477 1.93548 57.5484 1.93548C59.149 1.93548 60.4516 3.23807 60.4516 4.83871C60.4516 6.43936 59.149 7.74194 57.5484 7.74194ZM72.0645 12.5806C72.0645 13.1139 71.63 13.5484 71.0968 13.5484H68.1935V11.6129H66.2581V13.5484V15.4839H62.3871V4.83871C62.3871 3.74516 62.0087 2.74645 61.3942 1.93548H66.2581V9.67742H68.1935V1.93548H71.0968C71.63 1.93548 72.0645 2.37 72.0645 2.90323V12.5806Z" fill="#2F384F"/>
<path d="M24.6452 13.5484C24.6452 15.149 25.9477 16.4516 27.5484 16.4516C29.149 16.4516 30.4516 15.149 30.4516 13.5484C30.4516 11.9477 29.149 10.6451 27.5484 10.6451C25.9477 10.6451 24.6452 11.9477 24.6452 13.5484ZM28.5161 13.5484C28.5161 14.0816 28.0816 14.5161 27.5484 14.5161C27.0152 14.5161 26.5806 14.0816 26.5806 13.5484C26.5806 13.0151 27.0152 12.5806 27.5484 12.5806C28.0816 12.5806 28.5161 13.0151 28.5161 13.5484Z" fill="#2F384F"/>
<g filter="url(#filter0_dd)">
<path d="M44 57.544C44 58.9004 42.9004 60 41.5441 60H38.714C37.3576 60 36.2581 58.9004 36.2581 57.544C36.2581 56.4235 35.4907 55.4644 34.4488 55.0519C34.2865 54.9877 34.1252 54.9206 33.965 54.8507C32.936 54.402 31.7127 54.5367 30.9188 55.3304C29.959 56.2899 28.4031 56.2898 27.4434 55.3301L25.444 53.3308C24.4843 52.3711 24.4842 50.8152 25.4438 49.8553C26.2374 49.0614 26.3722 47.8381 25.9234 46.8091C25.8535 46.6489 25.7865 46.4877 25.7222 46.3253C25.3098 45.2835 24.3507 44.5161 23.2301 44.5161C21.8737 44.5161 20.7742 43.4165 20.7742 42.0602V39.2301C20.7742 37.8737 21.8737 36.7742 23.2301 36.7742C24.3507 36.7742 25.3098 36.0068 25.7222 34.9649C25.7865 34.8026 25.8535 34.6413 25.9234 34.4811C26.3722 33.4521 26.2374 32.2288 25.4438 31.4349C24.4842 30.4751 24.4843 28.9192 25.444 27.9595L27.4434 25.9601C28.4031 25.0004 29.959 25.0003 30.9188 25.9599C31.7127 26.7535 32.936 26.8883 33.965 26.4395C34.1252 26.3696 34.2865 26.3026 34.4488 26.2383C35.4907 25.8259 36.2581 24.8668 36.2581 23.7462C36.2581 22.3898 37.3576 21.2903 38.714 21.2903H41.5441C42.9004 21.2903 44 22.3898 44 23.7462C44 24.8668 44.7674 25.8259 45.8092 26.2383C45.9716 26.3026 46.1328 26.3696 46.293 26.4395C47.322 26.8883 48.5453 26.7535 49.3392 25.9599C50.2991 25.0003 51.855 25.0004 52.8147 25.9601L54.814 27.9595C55.7737 28.9192 55.7738 30.4751 54.8143 31.4349C54.0206 32.2288 53.8859 33.4521 54.3346 34.4811C54.4045 34.6413 54.4716 34.8026 54.5358 34.9649C54.9483 36.0068 55.9074 36.7742 57.0279 36.7742C58.3843 36.7742 59.4839 37.8737 59.4839 39.2301V42.0602C59.4839 43.4165 58.3843 44.5161 57.0279 44.5161C55.9074 44.5161 54.9483 45.2835 54.5358 46.3253C54.4716 46.4877 54.4045 46.6489 54.3346 46.8091C53.8859 47.8381 54.0206 49.0614 54.8143 49.8553C55.7738 50.8152 55.7737 52.3711 54.814 53.3308L52.8147 55.3301C51.855 56.2898 50.2991 56.2899 49.3392 55.3304C48.5453 54.5367 47.322 54.402 46.293 54.8507C46.1328 54.9206 45.9716 54.9877 45.8093 55.0519C44.7674 55.4644 44 56.4235 44 57.544Z" fill="#31AAFF"/>
</g>
<path d="M40.129 50.3226C34.7929 50.3226 30.4516 45.9813 30.4516 40.6452C30.4516 35.3091 34.7929 30.9678 40.129 30.9678C45.4652 30.9678 49.8064 35.3091 49.8064 40.6452C49.8064 43.2165 48.8087 45.6378 46.9961 47.4629L45.6229 46.1004C47.0726 44.6391 47.871 42.7026 47.871 40.6452C47.871 36.3765 44.3977 32.9033 40.129 32.9033C35.8603 32.9033 32.3871 36.3765 32.3871 40.6452C32.3871 44.9139 35.8603 48.3871 40.129 48.3871C41.5981 48.3871 43.0274 47.9739 44.2623 47.1929L45.2968 48.8275C43.7523 49.8058 41.9648 50.3226 40.129 50.3226Z" fill="#333333"/>
<path d="M40.129 46.4518C36.9268 46.4518 34.3226 43.8476 34.3226 40.6453C34.3226 37.4431 36.9268 34.8389 40.129 34.8389C43.3313 34.8389 45.9355 37.4431 45.9355 40.6453C45.9355 43.8476 43.3313 46.4518 40.129 46.4518ZM40.129 36.7744C37.9942 36.7744 36.2581 38.5105 36.2581 40.6453C36.2581 42.7802 37.9942 44.5163 40.129 44.5163C42.2639 44.5163 44 42.7802 44 40.6453C44 38.5105 42.2639 36.7744 40.129 36.7744Z" fill="#333333"/>
<defs>
<filter id="filter0_dd" x="0.774189" y="6.29028" width="78.7097" height="83.7097" filterUnits="userSpaceOnUse" color-interpolation-filters="sRGB">
<feFlood flood-opacity="0" result="BackgroundImageFix"/>
<feColorMatrix in="SourceAlpha" type="matrix" values="0 0 0 0 0 0 0 0 0 0 0 0 0 0 0 0 0 0 127 0"/>
<feOffset dy="10"/>
<feGaussianBlur stdDeviation="10"/>
<feColorMatrix type="matrix" values="0 0 0 0 0.215686 0 0 0 0 0.584314 0 0 0 0 0.858824 0 0 0 0.2 0"/>
<feBlend mode="normal" in2="BackgroundImageFix" result="effect1_dropShadow"/>
<feColorMatrix in="SourceAlpha" type="matrix" values="0 0 0 0 0 0 0 0 0 0 0 0 0 0 0 0 0 0 127 0"/>
<feOffset/>
<feGaussianBlur stdDeviation="7.5"/>
<feColorMatrix type="matrix" values="0 0 0 0 0.0235294 0 0 0 0 0.372549 0 0 0 0 0.631373 0 0 0 0.05 0"/>
<feBlend mode="normal" in2="effect1_dropShadow" result="effect2_dropShadow"/>
<feBlend mode="normal" in="SourceGraphic" in2="effect2_dropShadow" result="shape"/>
</filter>
</defs>
</svg>
