<svg width="89" height="82" viewBox="0 0 89 82" fill="none" xmlns="http://www.w3.org/2000/svg">
<g filter="url(#filter0_dd)">
<path d="M20.7742 16.4517V51.2904H38.5313C39.3297 49.0365 41.4732 47.4194 44 47.4194C46.5268 47.4194 48.6713 49.0365 49.4687 51.2904H50.1442C50.9426 49.0365 53.0861 47.4194 55.6129 47.4194C58.1397 47.4194 60.2842 49.0365 61.0816 51.2904H68.1935V16.4517H20.7742Z" fill="#31AAFF"/>
</g>
<path d="M71.0968 27.0968C72.6974 27.0968 74 25.7942 74 24.1935V18.3871C74 16.7865 72.6974 15.4839 71.0968 15.4839H70.129V12.5806C70.129 10.98 68.8265 9.67742 67.2258 9.67742H57.5484V2.90323H53.5545C53.1248 1.23581 51.6064 0 49.8064 0C48.0065 0 46.4881 1.23581 46.0584 2.90323H42.0645V9.67742H40.0623C39.5832 5.86452 36.3277 2.90323 32.3871 2.90323C28.4465 2.90323 25.191 5.86452 24.7119 9.67742H21.7419H19.8065H19.4668L14 14.0516V47.9381L20.1568 52.0423L28.1155 60H65.691L74 51.691V36.0765L68.1935 34.141V27.0968H71.0968ZM71.0968 17.4194C71.631 17.4194 72.0645 17.8539 72.0645 18.3871V24.1935C72.0645 24.7268 71.631 25.1613 71.0968 25.1613H68.1935V17.4194H69.1613H71.0968ZM44 4.83871H47.871V3.87097C47.871 2.80355 48.739 1.93548 49.8064 1.93548C50.8739 1.93548 51.7419 2.80355 51.7419 3.87097V4.83871H55.6129V9.67742H44V4.83871ZM57.5484 11.6129H67.2258C67.76 11.6129 68.1935 12.0474 68.1935 12.5806V15.4839H38.421C39.2958 14.3952 39.8794 13.0665 40.0613 11.6129H42.0645H57.5484ZM56.5806 46.529V17.4194H60.4516V48.4945C59.4345 47.4542 58.0864 46.7458 56.5806 46.529ZM56.5806 57.9668V53.2258H54.6452V57.9668C52.4397 57.5168 50.7742 55.5629 50.7742 53.2258C50.7742 50.5577 52.9448 48.3871 55.6129 48.3871C58.281 48.3871 60.4516 50.5577 60.4516 53.2258C60.4516 55.5619 58.7861 57.5168 56.5806 57.9668ZM44 58.0645C41.3319 58.0645 39.1613 55.8939 39.1613 53.2258C39.1613 50.5577 41.3319 48.3871 44 48.3871C46.6681 48.3871 48.8387 50.5577 48.8387 53.2258C48.8387 55.8939 46.6681 58.0645 44 58.0645ZM25.6129 21.2903V50.3226H21.7419V17.4194H25.6129V19.3548H27.5484V17.4194H28.6477C29.4887 17.8858 30.4255 18.1955 31.4194 18.3203V50.3226H27.5484V21.2903H25.6129ZM33.3548 18.3203C34.3487 18.1955 35.2865 17.8858 36.1265 17.4194H37.2258V50.3226H33.3548V18.3203ZM54.6452 46.529C53.1394 46.7458 51.7913 47.4552 50.7742 48.4945V17.4194H54.6452V46.529ZM48.8387 48.4945C47.8216 47.4552 46.4735 46.7458 44.9677 46.529V17.4194H48.8387V48.4945ZM43.0323 46.529C41.5265 46.7458 40.1784 47.4552 39.1613 48.4945V17.4194H43.0323V46.529ZM32.3871 4.83871C35.5894 4.83871 38.1935 7.4429 38.1935 10.6452C38.1935 13.8474 35.5894 16.4516 32.3871 16.4516C29.1848 16.4516 26.5806 13.8474 26.5806 10.6452C26.5806 7.4429 29.1848 4.83871 32.3871 4.83871ZM24.7119 11.6129C24.8948 13.0665 25.4784 14.3952 26.3523 15.4839H21.7419V11.6129H24.7119ZM15.9355 14.9806L19.8065 11.8839V49.4816L15.9355 46.9006V14.9806ZM28.9168 58.0645L23.1103 52.2581H37.3032C37.2577 52.5755 37.2258 52.8968 37.2258 53.2258C37.2258 55.1206 38.0097 56.8335 39.2687 58.0645H28.9168ZM48.7313 58.0645C49.1465 57.6581 49.5055 57.1974 49.8064 56.6971C50.1074 57.1974 50.4664 57.659 50.8816 58.0645H48.7313ZM64.8897 58.0645H60.3442C61.6032 56.8335 62.3871 55.1206 62.3871 53.2258C62.3871 52.8968 62.3552 52.5755 62.3097 52.2581H70.6961L64.8897 58.0645ZM72.0645 37.4719V50.3226H68.1935V48.3871H66.2581V50.3226H62.3871V17.4194H66.2581V25.1613V35.5364V46.4516H68.1935V36.181L72.0645 37.4719Z" fill="#2F384F"/>
<path d="M32.3871 14.5162C34.522 14.5162 36.2581 12.7801 36.2581 10.6453C36.2581 8.51042 34.522 6.77429 32.3871 6.77429C30.2523 6.77429 28.5161 8.51042 28.5161 10.6453C28.5161 12.7801 30.2523 14.5162 32.3871 14.5162ZM32.3871 8.70978C33.4545 8.70978 34.3226 9.57784 34.3226 10.6453C34.3226 11.7127 33.4545 12.5807 32.3871 12.5807C31.3197 12.5807 30.4516 11.7127 30.4516 10.6453C30.4516 9.57784 31.3197 8.70978 32.3871 8.70978Z" fill="#2F384F"/>
<path d="M44 50.3226C42.3994 50.3226 41.0968 51.6252 41.0968 53.2259C41.0968 54.8265 42.3994 56.1291 44 56.1291C45.6006 56.1291 46.9032 54.8265 46.9032 53.2259C46.9032 51.6252 45.6006 50.3226 44 50.3226ZM44 54.1936C43.4658 54.1936 43.0323 53.7601 43.0323 53.2259C43.0323 52.6917 43.4658 52.2581 44 52.2581C44.5342 52.2581 44.9677 52.6917 44.9677 53.2259C44.9677 53.7601 44.5342 54.1936 44 54.1936Z" fill="#2F384F"/>
<defs>
<filter id="filter0_dd" x="0.77417" y="1.45166" width="87.4194" height="79.8387" filterUnits="userSpaceOnUse" color-interpolation-filters="sRGB">
<feFlood flood-opacity="0" result="BackgroundImageFix"/>
<feColorMatrix in="SourceAlpha" type="matrix" values="0 0 0 0 0 0 0 0 0 0 0 0 0 0 0 0 0 0 127 0"/>
<feOffset dy="10"/>
<feGaussianBlur stdDeviation="10"/>
<feColorMatrix type="matrix" values="0 0 0 0 0.215686 0 0 0 0 0.584314 0 0 0 0 0.858824 0 0 0 0.2 0"/>
<feBlend mode="normal" in2="BackgroundImageFix" result="effect1_dropShadow"/>
<feColorMatrix in="SourceAlpha" type="matrix" values="0 0 0 0 0 0 0 0 0 0 0 0 0 0 0 0 0 0 127 0"/>
<feOffset/>
<feGaussianBlur stdDeviation="7.5"/>
<feColorMatrix type="matrix" values="0 0 0 0 0.0235294 0 0 0 0 0.372549 0 0 0 0 0.631373 0 0 0 0.05 0"/>
<feBlend mode="normal" in2="effect1_dropShadow" result="effect2_dropShadow"/>
<feBlend mode="normal" in="SourceGraphic" in2="effect2_dropShadow" result="shape"/>
</filter>
</defs>
</svg>
