<svg width="276" height="280" viewBox="0 0 276 280" fill="none" xmlns="http://www.w3.org/2000/svg">
<rect width="276" height="280" rx="4" fill="white"/>
<path d="M138.174 79C120.582 79 106.27 93.3123 106.27 110.904C106.27 128.496 120.582 142.809 138.174 142.809C155.766 142.809 170.078 128.496 170.078 110.904C170.078 93.3123 155.766 79 138.174 79Z" fill="#F0F5F8"/>
<path d="M177.869 163.652C169.134 154.783 157.555 149.898 145.264 149.898H131.084C118.793 149.898 107.213 154.783 98.4787 163.652C89.7868 172.477 85 184.127 85 196.455C85 198.413 86.5872 200 88.5449 200H187.803C189.76 200 191.348 198.413 191.348 196.455C191.348 184.127 186.561 172.477 177.869 163.652Z" fill="#F0F5F8"/>
</svg>
