<svg width="121" height="107" viewBox="0 0 121 107" fill="none" xmlns="http://www.w3.org/2000/svg">
<path d="M51.0958 107H0V68.3178C0 64.1584 0.104491 59.999 0.313471 55.8396C0.731433 51.4723 1.46287 47.6249 2.50777 44.2974C5.01554 33.483 10.0311 23.9164 17.5544 15.5977C25.2867 7.27891 36.6762 2.07969 51.7228 0V18.0933C46.2893 19.7571 41.7962 21.9407 38.2435 24.6443C34.8998 27.1399 32.1831 29.9475 30.0933 33.0671C28.0035 35.9786 26.5406 39.0982 25.7047 42.4257C25.0777 45.5452 24.7642 48.5607 24.7642 51.4723C24.7642 53.1361 25.0777 54.2799 25.7047 54.9038C26.5406 55.5277 27.481 55.8396 28.5259 55.8396H51.0958V107ZM120.06 107H69.2772V68.3178C69.2772 64.1584 69.3817 59.999 69.5907 55.8396C69.7996 51.4723 70.4266 47.6249 71.4715 44.2974C73.9793 33.483 79.0993 23.9164 86.8316 15.5977C94.5639 7.27891 105.953 2.07969 121 0V18.0933C115.566 19.7571 111.073 21.9407 107.521 24.6443C103.968 27.1399 101.147 29.9475 99.057 33.0671C96.9672 35.9786 95.5043 39.0982 94.6684 42.4257C94.0414 45.5452 93.728 48.5607 93.728 51.4723C93.728 54.3839 95.0863 55.8396 97.8031 55.8396H120.06V107Z" fill="#F0F5F8"/>
</svg>
