<svg width="60" height="60" viewBox="0 0 60 60" fill="none" xmlns="http://www.w3.org/2000/svg">
<path d="M53 51.5H2.5V44H53V51.5Z" fill="#31AAFF"/>
<path fill-rule="evenodd" clip-rule="evenodd" d="M42.9579 0C52.355 0 60 7.64508 60 17.0421C60 23.6896 56.1744 29.4602 50.6092 32.268L51.6964 33.7384C52.4237 34.7221 52.8243 35.9373 52.8243 37.1605V42.3988H52.8376C53.4847 42.3988 54.0095 42.9234 54.0095 43.5707V51.1097C54.0095 51.7569 53.4847 52.2816 52.8376 52.2816H49.7095V58.8281C49.7095 59.4754 49.1848 60 48.5377 60H39.9088C39.2617 60 38.7369 59.4754 38.7369 58.8281V52.2816H16.5986V58.8281C16.5986 59.4754 16.0739 60 15.4267 60H6.79781C6.15059 60 5.62594 59.4754 5.62594 58.8281V52.2817H2.49785C1.85063 52.2817 1.32598 51.757 1.32598 51.1098V43.5708C1.32598 42.9236 1.85063 42.3989 2.49785 42.3989H2.51121V37.1606C2.51121 35.9374 2.91176 34.7221 3.63902 33.7385L4.6384 32.3871H1.17188C0.524648 32.3871 0 31.8625 0 31.2152V24.6451C0 23.9979 0.524648 23.4732 1.17188 23.4732H6.67137L8.22902 13.9123C8.4627 12.4784 9.6866 11.4377 11.1393 11.4377H26.8624C29.1853 4.78535 35.5233 0 42.9579 0ZM31.9511 30.0434C29.6573 28.0985 27.883 25.5588 26.8687 22.665L20.775 28.7588C20.5462 28.9876 20.2463 29.102 19.9464 29.102C19.6465 29.102 19.3466 28.9876 19.1177 28.7588C18.66 28.3011 18.66 27.5591 19.1177 27.1015L25.6003 20.6189C25.7775 20.4416 25.9973 20.3331 26.2269 20.2931C26.1143 19.7127 26.0312 19.1217 25.9794 18.5221H14.6195L12.7819 30.0434H31.9511ZM11.1393 13.7815C10.8414 13.7815 10.5902 13.995 10.5423 14.2891L7.97566 30.0434H10.4085L12.4625 17.1656C12.5532 16.5968 13.0438 16.1783 13.6198 16.1783H25.9375C25.9784 15.363 26.0768 14.5629 26.2288 13.7815H11.1393ZM7.53246 32.3871C7.5027 32.4462 7.46789 32.5029 7.42828 32.5564L5.52363 35.132C5.0925 35.715 4.85508 36.4354 4.85508 37.1605V42.3988H9.07512V36.9923C9.07512 36.3451 9.59977 35.8205 10.247 35.8205H20.4939C21.1411 35.8205 21.6657 36.3451 21.6657 36.9923V42.3988H33.4003V36.9923C33.4003 36.3451 33.9251 35.8205 34.5722 35.8205H45.0886C45.7357 35.8205 46.2605 36.3451 46.2605 36.9923V42.3988H50.4806V37.1605C50.4806 36.4355 50.2432 35.7151 49.8121 35.132L48.3829 33.1992C46.678 33.7731 44.8536 34.0843 42.9579 34.0843C40.3035 34.0843 37.789 33.4743 35.547 32.3871H7.53246ZM43.9167 42.3988V38.1642H35.7441V42.3988H43.9167ZM19.322 42.3988V38.1642H11.4189V42.3988H19.322ZM2.34375 25.817V30.0434H5.60098L6.28957 25.817H2.34375ZM7.9698 57.6562H14.2549V52.2816H7.9698V57.6562ZM41.0808 57.6562H47.3659V52.2816H41.0808V57.6562ZM51.6659 49.9378V44.7425H3.66984V49.9378H51.6659ZM28.2594 17.0422C28.2594 25.1469 34.8532 31.7406 42.9579 31.7406C51.0626 31.7406 57.6562 25.1468 57.6562 17.0421C57.6562 8.93742 51.0626 2.34375 42.9579 2.34375C34.8532 2.34375 28.2594 8.93742 28.2594 17.0422ZM22.26 19.908C21.8024 19.4502 21.0604 19.4503 20.6027 19.908L16.5733 23.9375C16.1156 24.3951 16.1158 25.1371 16.5734 25.5947C16.8022 25.8236 17.1021 25.938 17.402 25.938C17.7019 25.938 18.0018 25.8236 18.2306 25.5947L22.2601 21.5652C22.7177 21.1076 22.7176 20.3656 22.26 19.908ZM10.1278 46.1685H40.9412C41.5883 46.1685 42.1131 46.6931 42.1131 47.3403C42.1131 47.9876 41.5884 48.5122 40.9412 48.5122H10.1278C9.48058 48.5122 8.95593 47.9876 8.95593 47.3403C8.95593 46.6931 9.48058 46.1685 10.1278 46.1685ZM46.2904 46.8926C46.3197 46.9629 46.3419 47.0368 46.3572 47.1118C46.3724 47.1868 46.3793 47.2641 46.3793 47.3403C46.3793 47.4165 46.3723 47.4938 46.3572 47.5688C46.3419 47.6438 46.3197 47.7176 46.2904 47.7879C46.2611 47.8594 46.2247 47.9274 46.1826 47.9907C46.1392 48.0551 46.0911 48.1149 46.0361 48.1688C45.9822 48.2227 45.9224 48.2719 45.8578 48.3141C45.7947 48.3563 45.7267 48.3926 45.6563 48.4219C45.5849 48.4512 45.5109 48.4747 45.4371 48.4887C45.361 48.504 45.2836 48.5122 45.2074 48.5122C45.1314 48.5122 45.0539 48.504 44.9789 48.4887C44.9039 48.4747 44.8301 48.4512 44.7599 48.4219C44.6895 48.3926 44.6204 48.3563 44.5572 48.3141C44.4927 48.2719 44.4329 48.2227 44.379 48.1688C44.3251 48.1149 44.2758 48.0551 44.2337 47.9907C44.1915 47.9274 44.1552 47.8594 44.1259 47.7879C44.0966 47.7176 44.0743 47.6438 44.0591 47.5688C44.0439 47.4938 44.0357 47.4165 44.0357 47.3403C44.0357 47.2641 44.0439 47.1868 44.0591 47.1118C44.0743 47.0368 44.0966 46.9629 44.1259 46.8926C44.1552 46.8211 44.1915 46.7532 44.2337 46.6899C44.2758 46.6254 44.3251 46.5657 44.379 46.5118C44.4329 46.4579 44.4927 46.4086 44.5572 46.3653C44.6204 46.3231 44.6896 46.2879 44.7599 46.2586C44.8302 46.2293 44.9039 46.2059 44.9789 46.1907C45.1301 46.1614 45.2859 46.1614 45.4371 46.1907C45.5109 46.2059 45.5849 46.2293 45.6563 46.2586C45.7267 46.2879 45.7947 46.3231 45.8578 46.3653C45.9224 46.4086 45.9822 46.4579 46.0361 46.5118C46.0911 46.5657 46.1392 46.6254 46.1826 46.6899C46.2247 46.7532 46.2611 46.8211 46.2904 46.8926ZM42.9579 4.91992C36.2736 4.91992 30.8355 10.3579 30.8355 17.0423C30.8355 23.7265 36.2736 29.1646 42.9579 29.1646C49.6421 29.1646 55.0802 23.7265 55.0801 17.0423C55.0801 10.358 49.6421 4.91992 42.9579 4.91992ZM42.9579 26.8207C37.566 26.8207 33.1793 22.4341 33.1793 17.0421C33.1793 11.6502 37.5659 7.26355 42.9579 7.26355C48.3498 7.26355 52.7365 11.6502 52.7364 17.0421C52.7364 22.4341 48.3498 26.8207 42.9579 26.8207ZM42.1407 10.5484C42.5957 10.1059 43.3202 10.1059 43.7749 10.5484C44.582 11.3335 48.6075 15.3927 48.6075 18.2175C48.6076 21.3328 46.0732 23.8673 42.9579 23.8673C39.8426 23.8673 37.308 21.3328 37.308 18.2175C37.308 15.3927 41.3338 11.3335 42.1407 10.5484ZM39.6518 18.2175C39.6518 20.0405 41.1349 21.5235 42.9579 21.5235C44.7809 21.5235 46.2639 20.0404 46.2639 18.2175C46.2639 17.0603 44.5296 14.756 42.9584 13.0667C41.3869 14.7576 39.6518 17.0631 39.6518 18.2175Z" fill="#2F384F"/>
</svg>
