<svg width="45" height="56" viewBox="0 0 45 56" fill="none" xmlns="http://www.w3.org/2000/svg">
<path d="M32.6786 35.4668H12.3214V43.4668L14.4643 46.1335L24.1071 47.7335V50.9335H32.6786V35.4668Z" fill="#31AAFF"/>
<path d="M44.0625 15.8667H40.3125C40.0639 15.8667 39.8254 15.965 39.6496 16.14C39.4738 16.3151 39.375 16.5525 39.375 16.8V17.7333H33.75V15.8667C34.2473 15.8667 34.7242 15.67 35.0758 15.3199C35.4275 14.9699 35.625 14.4951 35.625 14V11.2C35.625 10.7049 35.4275 10.2301 35.0758 9.88007C34.7242 9.53 34.2473 9.33333 33.75 9.33333H30V7.46667C30.4973 7.46667 30.9742 7.27 31.3258 6.91993C31.6775 6.56986 31.875 6.09507 31.875 5.6V1.86667C31.875 1.3716 31.6775 0.896802 31.3258 0.546734C30.9742 0.196666 30.4973 0 30 0H15C14.5027 0 14.0258 0.196666 13.6742 0.546734C13.3225 0.896802 13.125 1.3716 13.125 1.86667V5.6C13.125 6.09507 13.3225 6.56986 13.6742 6.91993C14.0258 7.27 14.5027 7.46667 15 7.46667V15.8667H5.625C5.625 15.6191 5.52623 15.3817 5.35041 15.2067C5.1746 15.0317 4.93614 14.9333 4.6875 14.9333H0.9375C0.68886 14.9333 0.450403 15.0317 0.274588 15.2067C0.0987722 15.3817 0 15.6191 0 15.8667V36.4C0 36.6475 0.0987722 36.8849 0.274588 37.06C0.450403 37.235 0.68886 37.3333 0.9375 37.3333H4.6875C4.93614 37.3333 5.1746 37.235 5.35041 37.06C5.52623 36.8849 5.625 36.6475 5.625 36.4H11.25V41.7807C11.2465 43.1072 11.7177 44.3917 12.579 45.4038C13.4404 46.416 14.6357 47.0897 15.9506 47.3041L22.5 48.3905V49.4667C22.5 50.2093 22.7963 50.9215 23.3238 51.4466C23.8512 51.9717 24.5666 52.2667 25.3125 52.2667V54.1333C25.3125 54.6284 25.51 55.1032 25.8617 55.4533C26.2133 55.8033 26.6902 56 27.1875 56H29.0625C29.5598 56 30.0367 55.8033 30.3883 55.4533C30.74 55.1032 30.9375 54.6284 30.9375 54.1333V52.2667C31.6834 52.2667 32.3988 51.9717 32.9262 51.4466C33.4537 50.9215 33.75 50.2093 33.75 49.4667V34.5333H39.375V35.4667C39.375 35.7142 39.4738 35.9516 39.6496 36.1266C39.8254 36.3017 40.0639 36.4 40.3125 36.4H44.0625C44.3111 36.4 44.5496 36.3017 44.7254 36.1266C44.9012 35.9516 45 35.7142 45 35.4667V16.8C45 16.5525 44.9012 16.3151 44.7254 16.14C44.5496 15.965 44.3111 15.8667 44.0625 15.8667ZM21.5625 28H16.875V24.2667H20.625C20.8736 24.2667 21.1121 24.365 21.2879 24.54C21.4637 24.7151 21.5625 24.9525 21.5625 25.2V28ZM15.9375 29.8667H29.0625C29.8084 29.8667 30.5238 30.1617 31.0512 30.6868C31.5787 31.2119 31.875 31.9241 31.875 32.6667V34.5333H13.125V32.6667C13.125 31.9241 13.4213 31.2119 13.9488 30.6868C14.4762 30.1617 15.1916 29.8667 15.9375 29.8667ZM31.875 18.6667V28.9576C31.323 28.5333 30.6822 28.2383 30 28.0943V15.8667H31.875V18.6667ZM33.75 14H28.125V11.2H33.75V14ZM15 1.86667H30V5.6H27.1875V3.73333H25.3125V5.6H23.4375V3.73333H21.5625V5.6H19.6875V3.73333H17.8125V5.6H15V1.86667ZM28.125 7.46667V9.33333C27.6277 9.33333 27.1508 9.53 26.7992 9.88007C26.4475 10.2301 26.25 10.7049 26.25 11.2V14C26.25 14.4951 26.4475 14.9699 26.7992 15.3199C27.1508 15.67 27.6277 15.8667 28.125 15.8667V28H23.4375V25.2C23.4375 24.4574 23.1412 23.7452 22.6137 23.2201C22.0863 22.695 21.3709 22.4 20.625 22.4H16.875V7.46667H28.125ZM1.875 35.4667V16.8H3.75V35.4667H1.875ZM5.625 17.7333H15V28.0933C13.9419 28.31 12.9913 28.8831 12.3082 29.7162C11.6251 30.5492 11.2514 31.5913 11.25 32.6667V34.5333H5.625V17.7333ZM29.0625 54.1333H27.1875V52.2667H29.0625V54.1333ZM31.875 49.4667C31.875 49.7142 31.7762 49.9516 31.6004 50.1266C31.4246 50.3017 31.1861 50.4 30.9375 50.4H25.3125C25.0639 50.4 24.8254 50.3017 24.6496 50.1266C24.4738 49.9516 24.375 49.7142 24.375 49.4667V47.6C24.3749 47.3792 24.2963 47.1656 24.1529 46.9971C24.0096 46.8286 23.8109 46.7162 23.5922 46.6797L16.2581 45.4664C15.3809 45.3234 14.5836 44.8738 14.0094 44.1983C13.4351 43.5228 13.1216 42.6656 13.125 41.7807V36.4H31.875V49.4667ZM33.75 32.6667V19.6H39.375V32.6667H33.75ZM43.125 34.5333H41.25V17.7333H43.125V34.5333Z" fill="#2F384F"/>
<path d="M22.5 20.5334C23.0563 20.5334 23.6 20.3691 24.0625 20.0615C24.5251 19.7538 24.8855 19.3165 25.0984 18.8049C25.3113 18.2932 25.367 17.7302 25.2585 17.1871C25.1499 16.644 24.8821 16.145 24.4887 15.7535C24.0954 15.3619 23.5943 15.0952 23.0487 14.9872C22.5031 14.8791 21.9376 14.9346 21.4237 15.1465C20.9098 15.3584 20.4705 15.7173 20.1615 16.1778C19.8524 16.6382 19.6875 17.1796 19.6875 17.7334C19.6875 18.476 19.9838 19.1882 20.5113 19.7133C21.0387 20.2384 21.7541 20.5334 22.5 20.5334ZM22.5 16.8C22.6854 16.8 22.8667 16.8548 23.0208 16.9573C23.175 17.0599 23.2952 17.2056 23.3661 17.3762C23.4371 17.5467 23.4557 17.7344 23.4195 17.9154C23.3833 18.0965 23.294 18.2628 23.1629 18.3933C23.0318 18.5238 22.8648 18.6127 22.6829 18.6488C22.501 18.6848 22.3125 18.6663 22.1412 18.5956C21.9699 18.525 21.8235 18.4054 21.7205 18.2519C21.6175 18.0984 21.5625 17.9179 21.5625 17.7334C21.5625 17.4858 21.6613 17.2484 21.8371 17.0734C22.0129 16.8984 22.2514 16.8 22.5 16.8Z" fill="#2F384F"/>
<path d="M23.4375 10.2666H21.5625V12.1333H23.4375V10.2666Z" fill="#2F384F"/>
</svg>
