<svg width="60" height="55" viewBox="0 0 60 55" fill="none" xmlns="http://www.w3.org/2000/svg">
<path d="M60 26.129H58.0645V6.77419C58.0645 4.10613 55.8939 1.93548 53.2258 1.93548H35.8064C33.1384 1.93548 30.9677 4.10613 30.9677 6.77419V8.81129H29.0323V6.77419C29.0323 3.03871 32.071 0 35.8064 0H53.2258C56.9613 0 60 3.03871 60 6.77419V26.129Z" fill="#2F384F"/>
<path d="M23.4455 14.1029C22.1168 13.4419 21.2903 12.1171 21.2903 10.6451C21.2903 8.5103 23.0264 6.77417 25.1613 6.77417C26.8916 6.77417 28.4226 7.94514 28.8823 9.6232L27.0155 10.1351C26.7852 9.2961 26.0226 8.70965 25.1613 8.70965C24.0939 8.70965 23.2258 9.57772 23.2258 10.6451C23.2258 11.3767 23.64 12.0377 24.3077 12.3697L23.4455 14.1029Z" fill="#2F384F"/>
<path d="M18.9677 21.2903H5.80645C4.73903 21.2903 3.87096 22.1583 3.87096 23.2258V30.9677C3.87096 32.0351 4.73903 32.9032 5.80645 32.9032H18.9677V30.9677H5.80645V23.2258H18.9677V21.2903Z" fill="#2F384F"/>
<path d="M37.7419 47.4194V51.2903C37.7419 51.8236 37.3074 52.2581 36.7742 52.2581H34.8387C34.3055 52.2581 33.871 51.8236 33.871 51.2903V46.5668H31.9355V50.3226H19.3548C16.6868 50.3226 14.5161 48.1519 14.5161 45.4839V36.7742H20.3429V34.8387H2.90323C2.37 34.8387 1.93548 34.4042 1.93548 33.871V20.3226C1.93548 19.7894 2.37 19.3548 2.90323 19.3548H20.3226V18.3871V17.4194V14.5161C20.3226 12.9155 19.02 11.6129 17.4194 11.6129H15.4839C13.8832 11.6129 12.5806 12.9155 12.5806 14.5161V17.4194H10.6452V10.6452C10.6452 9.04452 9.34258 7.74194 7.74193 7.74194H5.80645C4.20581 7.74194 2.90323 9.04452 2.90323 10.6452V17.4194C1.30258 17.4194 0 18.7219 0 20.3226V33.871C0 35.4716 1.30258 36.7742 2.90323 36.7742V45.4839C2.90323 47.0845 4.20581 48.3871 5.80645 48.3871H7.74193C9.34258 48.3871 10.6452 47.0845 10.6452 45.4839V36.7742H12.5806V45.4839C12.5806 49.2194 15.6194 52.2581 19.3548 52.2581H32.1135C32.5142 53.3816 33.5787 54.1936 34.8387 54.1936H36.7742C38.3748 54.1936 39.6774 52.891 39.6774 51.2903V47.4194H37.7419ZM14.5161 14.5161C14.5161 13.9829 14.9506 13.5484 15.4839 13.5484H17.4194C17.9526 13.5484 18.3871 13.9829 18.3871 14.5161V17.4194H14.5161V14.5161ZM4.83871 10.6452C4.83871 10.1119 5.27322 9.67743 5.80645 9.67743H7.74193C8.27516 9.67743 8.70968 10.1119 8.70968 10.6452V17.4194H4.83871V10.6452ZM8.70968 45.4839C8.70968 46.0171 8.27516 46.4516 7.74193 46.4516H5.80645C5.27322 46.4516 4.83871 46.0171 4.83871 45.4839V36.7742H8.70968V45.4839Z" fill="#2F384F"/>
<path d="M7.74194 25.1611H9.67742V27.0966H7.74194V25.1611Z" fill="#2F384F"/>
<path d="M11.6129 25.1611H13.5484V27.0966H11.6129V25.1611Z" fill="#2F384F"/>
<path d="M15.4839 25.1611H18.4103V27.0966H15.4839V25.1611Z" fill="#2F384F"/>
<path fill-rule="evenodd" clip-rule="evenodd" d="M54.1935 9.6773C52.5929 9.6773 51.2903 8.37472 51.2903 6.77408C51.2903 5.17343 52.5929 3.87085 54.1935 3.87085C55.7942 3.87085 57.0968 5.17343 57.0968 6.77408C57.0968 8.37472 55.7942 9.6773 54.1935 9.6773ZM19.3548 48.3873C17.7542 48.3873 16.4516 47.0847 16.4516 45.484C16.4516 43.8834 17.7542 42.5808 19.3548 42.5808C20.9555 42.5808 22.2581 43.8834 22.2581 45.484C22.2581 47.0847 20.9555 48.3873 19.3548 48.3873ZM17.4194 27.0967C17.4194 38.8364 26.97 48.387 38.7097 48.387C50.4494 48.387 60 38.8364 60 27.0967C60 15.357 50.4494 5.8064 38.7097 5.8064C26.97 5.8064 17.4194 15.357 17.4194 27.0967ZM24.1935 27.0967C24.1935 19.0925 30.7055 12.5806 38.7097 12.5806C46.7139 12.5806 53.2258 19.0925 53.2258 27.0967C53.2258 35.1009 46.7139 41.6128 38.7097 41.6128C30.7055 41.6128 24.1935 35.1009 24.1935 27.0967Z" fill="#31AAFF"/>
<path d="M38.7097 23.2258C36.5748 23.2258 34.8387 24.962 34.8387 27.0968C34.8387 29.2316 36.5748 30.9678 38.7097 30.9678C40.8445 30.9678 42.5806 29.2316 42.5806 27.0968C42.5806 24.962 40.8445 23.2258 38.7097 23.2258ZM38.7097 29.0323C37.6423 29.0323 36.7742 28.1642 36.7742 27.0968C36.7742 26.0294 37.6423 25.1613 38.7097 25.1613C39.7771 25.1613 40.6452 26.0294 40.6452 27.0968C40.6452 28.1642 39.7771 29.0323 38.7097 29.0323Z" fill="#2F384F"/>
<path d="M38.7097 11.613C30.1723 11.613 23.2258 18.5595 23.2258 27.0969C23.2258 35.6343 30.1723 42.5808 38.7097 42.5808C47.2471 42.5808 54.1935 35.6343 54.1935 27.0969C54.1935 18.5595 47.2471 11.613 38.7097 11.613ZM38.7097 40.2446L36.0571 37.5921L37.7487 34.773C38.0642 34.8117 38.3835 34.8388 38.7097 34.8388V40.2446ZM38.7097 32.9034C35.5074 32.9034 32.9032 30.2992 32.9032 27.0969C32.9032 23.8946 35.5074 21.2905 38.7097 21.2905C41.9119 21.2905 44.5161 23.8946 44.5161 27.0969C44.5161 30.2992 41.9119 32.9034 38.7097 32.9034ZM33.2381 21.6253L29.4126 17.8008H33.1635L33.9619 20.9953C33.7093 21.1917 33.4645 21.3988 33.2381 21.6253ZM30.9677 27.0969H25.5619L28.2145 24.4443L31.0335 26.1359C30.9948 26.4514 30.9677 26.7708 30.9677 27.0969ZM33.2381 32.5685L29.4135 36.393V32.6421L32.6081 31.8437C32.8045 32.0972 33.0116 32.3421 33.2381 32.5685ZM38.7097 13.9492L41.3623 16.6017L39.6706 19.4208C39.3552 19.3821 39.0358 19.355 38.7097 19.355V13.9492ZM44.1813 21.6253L48.0058 17.7998V21.5508L44.8113 22.3492C44.6148 22.0966 44.4077 21.8517 44.1813 21.6253ZM44.1813 32.5685L48.0058 36.393H44.2548L43.4564 33.1985C43.71 33.0021 43.9548 32.795 44.1813 32.5685ZM46.4516 27.0969H51.8574L49.2048 29.7495L46.3858 28.0579C46.4245 27.7424 46.4516 27.423 46.4516 27.0969ZM46.1971 25.1614C46.1022 24.7937 45.989 24.4317 45.8429 24.0872L49.9422 23.0624V19.5282C51.06 21.1821 51.8071 23.1001 52.1042 25.1614H46.1971ZM42.6348 20.435C42.3116 20.2434 41.9748 20.0721 41.6235 19.9288L43.8 16.3017L41.3013 13.804C43.3384 14.2008 45.2061 15.0611 46.8087 16.2621L42.6348 20.435ZM36.7742 19.6095C36.4064 19.7043 36.0445 19.8176 35.7 19.9637L34.6752 15.8643H31.141C32.7948 14.7466 34.7129 13.9995 36.7742 13.7024V19.6095ZM32.0477 23.1717C31.8561 23.495 31.6848 23.8317 31.5416 24.183L27.9145 22.0066L25.4168 24.5053C25.8135 22.4682 26.6739 20.6005 27.8748 18.9979L32.0477 23.1717ZM31.2223 29.0324C31.3171 29.4001 31.4303 29.7621 31.5764 30.1066L27.4771 31.1314V34.6656C26.3593 33.0117 25.6132 31.0937 25.3161 29.0324H31.2223ZM34.7845 33.7588C35.1077 33.9505 35.4445 34.1217 35.7958 34.265L33.6193 37.8921L36.1181 40.3898C34.081 39.993 32.2123 39.1327 30.6106 37.9317L34.7845 33.7588ZM40.6452 34.5843C41.0129 34.4895 41.3748 34.3763 41.7193 34.2301L42.7442 38.3295H46.2784C44.6245 39.4472 42.7064 40.1934 40.6452 40.4905V34.5843ZM45.3716 31.0221C45.5632 30.6988 45.7345 30.3621 45.8777 30.0108L49.5048 32.1872L52.0026 29.6885C51.6058 31.7256 50.7455 33.5943 49.5445 35.1959L45.3716 31.0221Z" fill="#2F384F"/>
</svg>
