<svg width="60" height="60" viewBox="0 0 60 60" fill="none" xmlns="http://www.w3.org/2000/svg">
<path d="M45.5352 15.4845C42.1684 15.4845 38.9642 17.1036 36.9668 19.8152L26.5626 33.9345L20.8529 34.6961C17.8142 35.1016 15.2119 36.7874 13.5494 39.1584V15.9442C15.9503 14.3339 17.4203 11.6126 17.4203 8.71034C17.4203 5.57099 15.7519 2.65421 13.0665 1.09905L11.8974 0.421631L10.7439 6.19228L8.70968 7.54712L6.67645 6.19228L5.5229 0.421631L4.35387 1.09905C1.66839 2.65421 0 5.57099 0 8.71034C0 11.6126 1.47 14.3349 3.87097 15.9442V40.2626C1.47 41.8729 0 44.5942 0 47.4965C0 50.6358 1.66839 53.5526 4.35387 55.1078L5.5229 55.7852L6.67645 50.0145L8.70968 48.6597L10.1913 49.6478C9.86903 50.1152 9.67742 50.6803 9.67742 51.291V53.2265C9.67742 54.8271 10.98 56.1297 12.5806 56.1297H21.3629V54.1942H12.5806C12.0465 54.1942 11.6129 53.7597 11.6129 53.2265V51.291C11.6129 50.7578 12.0465 50.3232 12.5806 50.3232H20.5713V48.3878H13.5484V45.4845V45.2474C13.5484 44.7481 13.5958 44.2584 13.679 43.7794C14.5248 44.2458 15.4665 44.5168 16.4516 44.5168C19.6539 44.5168 22.2581 41.9126 22.2581 38.7103C22.2581 37.9507 22.0906 37.2161 21.8003 36.5223L27.6319 35.7452L38.5239 20.9639C40.1584 18.7449 42.78 17.42 45.5352 17.42H58.0645V19.3555H46.0006C44.1581 19.3555 42.4074 20.2429 41.3177 21.7284L36.3542 28.4968C33.779 29.4558 31.9355 31.9332 31.9355 34.8394V35.8071V45.2484H33.871V35.8071H37.7419H39.6774H58.0645V54.1942H34.7661V56.1297H60V15.4845H45.5352ZM11.6129 48.2687L8.70968 46.3332L4.93645 48.8494L4.18645 52.6013C2.77258 51.32 1.93548 49.4649 1.93548 47.4965C1.93548 45.0926 3.23419 42.8465 5.32355 41.6358L5.80645 41.3561V14.8497L5.32355 14.57C3.23419 13.3603 1.93548 11.1142 1.93548 8.71034C1.93548 6.74195 2.77258 4.88679 4.18548 3.6055L4.93548 7.35744L8.70871 9.87357L12.4819 7.35744L13.2319 3.6055C14.6468 4.88679 15.4839 6.74195 15.4839 8.71034C15.4839 11.1142 14.1852 13.3603 12.0958 14.571L11.6129 14.8507V45.2484V45.4845V48.2687ZM16.4516 42.5813C15.6523 42.5813 14.8906 42.3268 14.2432 41.871C15.2545 39.4874 17.2994 37.6255 19.8474 36.8881C20.159 37.4523 20.3226 38.0716 20.3226 38.7103C20.3226 40.8452 18.5865 42.5813 16.4516 42.5813ZM37.7419 33.8716H33.9687C34.4187 31.6661 36.3726 30.0007 38.7097 30.0007H39.6774C40.7448 30.0007 41.6129 30.8687 41.6129 31.9361C41.6129 33.0036 40.7448 33.8716 39.6774 33.8716H37.7419ZM43.0103 33.8716C43.3432 33.2997 43.5484 32.6445 43.5484 31.9361C43.5484 29.8013 41.8123 28.0652 39.6774 28.0652H39.0706L42.8787 22.8723C43.6055 21.8823 44.7726 21.291 46.0006 21.291H58.0645V33.8716H43.0103Z" fill="#2F384F"/>
<path fill-rule="evenodd" clip-rule="evenodd" d="M32.5026 20.3226C31.8861 20.3226 31.2842 20.0729 30.8497 19.6374L26.6961 15.4839H24.1936C21.5255 15.4839 19.3549 13.3132 19.3549 10.6452V4.83871C19.3549 2.17065 21.5255 0 24.1936 0H37.742C40.41 0 42.5807 2.17065 42.5807 4.83871V10.6452C42.5807 13.3132 40.41 15.4839 37.742 15.4839H34.8387V17.9865C34.8387 19.2745 33.7907 20.3226 32.5026 20.3226ZM53.2258 43.5484H51.2903C49.6897 43.5484 48.3871 42.2458 48.3871 40.6452V37.7419H56.129V40.6452C56.129 42.2458 54.8264 43.5484 53.2258 43.5484ZM19.3549 51.2902C19.3549 56.0922 23.2616 59.9999 28.0645 59.9999C32.8674 59.9999 36.7742 56.0922 36.7742 51.2902C36.7742 46.4883 32.8674 42.5806 28.0645 42.5806C23.2616 42.5806 19.3549 46.4883 19.3549 51.2902ZM24.1936 51.2902C24.1936 49.1554 25.9307 47.4193 28.0645 47.4193C30.1984 47.4193 31.9355 49.1554 31.9355 51.2902C31.9355 53.4251 30.1984 55.1612 28.0645 55.1612C25.9307 55.1612 24.1936 53.4251 24.1936 51.2902Z" fill="#31AAFF"/>
<path d="M29.0324 12.9813L25.4449 9.39386L26.8133 8.02548L29.0324 10.2445L36.0901 3.18677L37.4585 4.55515L29.0324 12.9813Z" fill="#2F384F"/>
<path d="M7.74194 14.5161H9.67743V16.4516H7.74194V14.5161Z" fill="#2F384F"/>
<path d="M7.74194 18.3872H9.67743V20.3227H7.74194V18.3872Z" fill="#2F384F"/>
<path d="M7.74194 22.2581H9.67743V24.1935H7.74194V22.2581Z" fill="#2F384F"/>
<path d="M38.7097 50.3228H40.6452V52.2582H38.7097V50.3228Z" fill="#2F384F"/>
<path d="M28.0645 56.1291C25.3965 56.1291 23.2258 53.9584 23.2258 51.2904C23.2258 48.6223 25.3965 46.4517 28.0645 46.4517C30.7326 46.4517 32.9032 48.6223 32.9032 51.2904C32.9032 53.9584 30.7326 56.1291 28.0645 56.1291ZM28.0645 48.3871C26.4639 48.3871 25.1613 49.6897 25.1613 51.2904C25.1613 52.891 26.4639 54.1936 28.0645 54.1936C29.6652 54.1936 30.9678 52.891 30.9678 51.2904C30.9678 49.6897 29.6652 48.3871 28.0645 48.3871Z" fill="#2F384F"/>
<path d="M42.5807 50.3228H44.5162V52.2582H42.5807V50.3228Z" fill="#2F384F"/>
<path d="M46.4517 50.3228H48.3871V52.2582H46.4517V50.3228Z" fill="#2F384F"/>
</svg>
