<svg width="56" height="56" viewBox="0 0 56 56" fill="none" xmlns="http://www.w3.org/2000/svg">
<path d="M52.3871 37.9354V25.2903H45.8848C45.6644 24.6715 45.4052 24.0546 45.1116 23.4432L49.7154 18.8385L42.8825 12.0056L40.6452 12.086V22.5806L38.5605 24.6652C39.8747 26.6605 40.6452 29.045 40.6452 31.6128C40.6452 35.4994 38.8884 38.9732 36.129 41.2927V41.5483H35.8057C33.6551 43.2401 30.949 44.258 28 44.258C25.051 44.258 22.3449 43.2401 20.1943 41.5483H19.871V41.2927C17.1116 38.9732 15.3548 35.4994 15.3548 31.6128C15.3548 29.1281 16.0819 26.8185 17.3194 24.8639L13.879 21.8535C13.095 21.1679 12.6452 20.1762 12.6452 19.1348V13.0949L12.0066 13.1175L6.28556 18.8385L10.8893 23.4432C10.5958 24.0546 10.3365 24.6715 10.1161 25.2903H3.61292V37.9354H10.1152C10.3356 38.5523 10.5939 39.1692 10.8884 39.7816L6.28466 44.3872L15.2248 53.3273L19.8303 48.7235C20.4427 49.018 21.0596 49.2763 21.6765 49.4967V55.9999H34.3217V49.4976C34.9386 49.2772 35.5555 49.0189 36.1679 48.7244L40.7734 53.3282L49.7136 44.3881L45.1098 39.7825C45.4043 39.1701 45.6626 38.5532 45.883 37.9363H52.3871V37.9354Z" fill="#31AAFF"/>
<path d="M54.1935 7.22581C55.1898 7.22581 56 6.41561 56 5.41935V1.80284L55.6008 1.53368C54.1095 0.530194 52.3726 0 50.5806 0C47.3254 0 44.3809 1.71613 42.7668 4.51613H41.5484C41.5484 2.52361 39.928 0.903226 37.9355 0.903226C36.8516 0.903226 35.8888 1.39277 35.2258 2.15148C34.5628 1.39277 33.6 0.903226 32.5161 0.903226C31.4323 0.903226 30.4694 1.39277 29.8064 2.15148C29.1435 1.39277 28.1806 0.903226 27.0968 0.903226C26.0129 0.903226 25.0501 1.39277 24.3871 2.15148C23.7241 1.39277 22.7613 0.903226 21.6774 0.903226C19.6849 0.903226 18.0645 2.52361 18.0645 4.51613H13.2332C11.6191 1.71613 8.67458 0 5.41935 0C3.62735 0 1.89045 0.530194 0.399226 1.53368L0 1.80284V5.41935C0 6.41561 0.810193 7.22581 1.80645 7.22581H6.32258V10.8387H1.80645C0.810193 10.8387 0 11.6489 0 12.6452V16.2617L0.399226 16.5308C1.89045 17.5343 3.62735 18.0645 5.41935 18.0645C7.84452 18.0645 10.0836 17.0972 11.7419 15.4542V19.1348C11.7419 20.4364 12.3046 21.6756 13.2846 22.5346L16.156 25.0474C15.0441 27.048 14.4516 29.3061 14.4516 31.6129C14.4516 39.0835 20.5294 45.1613 28 45.1613C35.4706 45.1613 41.5484 39.0835 41.5484 31.6129C41.5484 29.1941 40.9143 26.8583 39.7076 24.7954L41.5484 22.9546V15.3548V13.5484H42.7668C44.3809 16.3484 47.3254 18.0645 50.5806 18.0645C52.3726 18.0645 54.1095 17.5343 55.6008 16.5308L56 16.2617V12.6452C56 11.6489 55.1898 10.8387 54.1935 10.8387H49.6774V7.22581H54.1935ZM37.9355 2.70968C38.9317 2.70968 39.7419 3.51987 39.7419 4.51613V5.41935V15.3548C39.7419 16.3511 38.9317 17.1613 37.9355 17.1613C36.9392 17.1613 36.129 16.3511 36.129 15.3548V4.51613C36.129 3.51987 36.9392 2.70968 37.9355 2.70968ZM32.5161 2.70968C33.5124 2.70968 34.3226 3.51987 34.3226 4.51613V15.3548C34.3226 16.3511 33.5124 17.1613 32.5161 17.1613C31.5199 17.1613 30.7097 16.3511 30.7097 15.3548V4.51613C30.7097 3.51987 31.5199 2.70968 32.5161 2.70968ZM27.0968 2.70968C28.093 2.70968 28.9032 3.51987 28.9032 4.51613V15.3548C28.9032 16.3511 28.093 17.1613 27.0968 17.1613C26.1005 17.1613 25.2903 16.3511 25.2903 15.3548V4.51613C25.2903 3.51987 26.1005 2.70968 27.0968 2.70968ZM19.871 4.51613C19.871 3.51987 20.6812 2.70968 21.6774 2.70968C22.6737 2.70968 23.4839 3.51987 23.4839 4.51613V15.3548C23.4839 16.1425 22.9735 16.8244 22.2528 17.0665L19.871 14.9493V11.2903V4.51613ZM5.41935 16.2581C4.144 16.2581 2.90477 15.9221 1.80645 15.2817V12.6452H8.12903V5.41935H1.80645V2.78284C2.90477 2.14245 4.144 1.80645 5.41935 1.80645C8.17419 1.80645 10.6517 3.34465 11.8846 5.82129L12.1339 6.32258H18.0645V7.91406C17.4178 7.48052 16.6419 7.22581 15.8065 7.22581C13.5655 7.22581 11.7419 9.04942 11.7419 11.2903V12.4862C10.4702 14.8147 8.07935 16.2581 5.41935 16.2581ZM16.2581 31.6129C16.2581 29.7432 16.7015 27.9097 17.5452 26.2622L18.9677 27.5068V39.1052C17.2769 37.0702 16.2581 34.459 16.2581 31.6129ZM39.7419 31.6129C39.7419 34.459 38.7231 37.0702 37.0323 39.1052V27.4707L38.3763 26.1267C39.2677 27.8094 39.7419 29.6782 39.7419 31.6129ZM35.2258 26.7228V35.2258H33.4194V37.0323H35.2258V40.8493C33.2306 42.4128 30.7259 43.3548 28 43.3548C25.2741 43.3548 22.7694 42.4128 20.7742 40.8493V37.0323H31.6129V35.2258H20.7742V26.6867L14.4742 21.1734C13.8862 20.6595 13.5484 19.9161 13.5484 19.1348V11.2903C13.5484 10.0448 14.5618 9.03226 15.8065 9.03226C17.0511 9.03226 18.0645 10.0448 18.0645 11.2903V15.3548V15.7604L26.4961 23.2554L27.6965 21.9059L23.6862 18.3409C23.9472 18.1648 24.1902 17.9661 24.3961 17.7303C25.0591 18.4827 26.0174 18.9677 27.0968 18.9677C28.1806 18.9677 29.1435 18.4782 29.8064 17.7195C30.4694 18.4782 31.4323 18.9677 32.5161 18.9677C33.6 18.9677 34.5628 18.4782 35.2258 17.7195C35.8888 18.4782 36.8516 18.9677 37.9355 18.9677C38.5966 18.9677 39.2081 18.7763 39.7419 18.4655V22.2067L35.2258 26.7228ZM54.1935 12.6452V15.2817C53.0952 15.9221 51.856 16.2581 50.5806 16.2581C47.8258 16.2581 45.3483 14.7199 44.1154 12.2432L43.8661 11.7419H41.5484V6.32258H43.8661L44.1154 5.82129C45.3483 3.34465 47.8258 1.80645 50.5806 1.80645C51.856 1.80645 53.0952 2.14245 54.1935 2.78284V5.41935H47.871V12.6452H54.1935Z" fill="#2F384F"/>
</svg>
