<svg width="60" height="43" viewBox="0 0 60 43" fill="none" xmlns="http://www.w3.org/2000/svg">
<path d="M58.5 30.5H1.5L2.5 21L5.5 18.5H50.5L54 19.5L57.5 23.5L58.5 30.5Z" fill="#31AAFF"/>
<path fill-rule="evenodd" clip-rule="evenodd" d="M58.9406 25.0817V29.0725C59.5358 29.1334 60.0001 29.6364 60 30.2476V35.7575C60 36.4099 59.4711 36.9389 58.8186 36.9389H52.9719C52.3599 39.8628 49.761 42.0654 46.6572 42.0654C43.5534 42.0654 40.9545 39.8628 40.3426 36.9389H19.6574C19.0455 39.8628 16.4466 42.0654 13.3428 42.0654C10.239 42.0654 7.64009 39.8628 7.02811 36.9389H1.18141C0.528919 36.9389 0 36.4099 0 35.7575V30.2476C0 29.6364 0.464296 29.1334 1.05937 29.0726V22.8396C1.05937 20.6268 2.42072 18.7259 4.35008 17.9298L7.0059 4.68324C7.54994 1.96953 9.95424 0 12.7226 0H37.5843C39.838 0 41.911 1.31869 42.8657 3.35947L49.0999 16.6858L54.9873 10.8005C55.4487 10.3391 56.1968 10.3393 56.658 10.8008C57.1194 11.2623 57.1192 12.0104 56.6578 12.4716L51.5935 17.5341C55.6607 17.6474 58.9351 20.9875 58.9406 25.0791V25.0817ZM12.7226 2.36283C11.0761 2.36283 9.64625 3.53408 9.32266 5.14766L6.84003 17.5309H9.20924L11.5945 5.63334C11.7052 5.08138 12.1899 4.68419 12.7529 4.68419H37.5607C38.0193 4.68419 38.4365 4.94953 38.6308 5.36504L44.322 17.5309H46.8865L40.7253 4.3606C40.1576 3.14705 38.9246 2.36283 37.5842 2.36283H12.7226ZM28.0182 17.5309H41.7136L36.8092 7.04702H28.0182V17.5309ZM25.6552 17.5309V7.04702H24.5036V17.5309H25.6552ZM22.1409 17.5309V7.04702H13.7211L11.6191 17.5309H22.1409ZM6.89166 26.263H3.42232V29.0662H6.89166V26.263ZM2.36283 34.5761H6.97554C7.16917 33.3872 7.68912 32.3065 8.44002 31.429H2.36283V34.5761ZM13.3428 39.7026C15.5604 39.7026 17.3713 37.9286 17.4295 35.7257C17.4305 35.6893 17.4311 35.6528 17.4311 35.6162C17.4311 33.363 15.597 31.5298 13.3428 31.5298C11.0885 31.5298 9.25449 33.363 9.25449 35.6162C9.25449 35.6344 9.25461 35.6527 9.25484 35.6709C9.28426 37.8991 11.1068 39.7026 13.3428 39.7026ZM19.71 34.576H40.2901C40.4837 33.3872 41.0036 32.3065 41.7545 31.4289H18.2455C18.9965 32.3065 19.5164 33.3871 19.71 34.576ZM50.7452 35.6765L50.7453 35.6702C50.7455 35.6522 50.7456 35.6343 50.7456 35.6162C50.7456 33.363 48.9116 31.5298 46.6573 31.5298C44.4031 31.5298 42.5691 33.363 42.5691 35.6162C42.5691 35.6528 42.5697 35.6893 42.5706 35.7257C42.6288 37.9286 44.4397 39.7026 46.6573 39.7026C48.8744 39.7026 50.6849 37.9294 50.7441 35.7274V35.7255C50.7446 35.7092 50.7449 35.6929 50.7452 35.6765ZM50.7456 29.0662V25.0815C50.7456 24.4292 51.2745 23.9001 51.927 23.9001H56.4404C55.901 21.6065 53.8369 19.8937 51.3799 19.8937H6.36948C4.74444 19.8937 3.42232 21.2152 3.42232 22.8394V23.9001H8.07307C8.72557 23.9001 9.25449 24.4292 9.25449 25.0815V29.0662H50.7456ZM56.5778 29.0662V26.263H53.1085V29.0662H56.5778ZM53.0246 34.576H57.6373V31.4289H51.5601C52.3111 32.3065 52.8309 33.3871 53.0246 34.576ZM14.3601 23.5342C14.3447 23.4586 14.3223 23.3853 14.2928 23.3133C14.2632 23.2424 14.2266 23.1739 14.1841 23.1101C14.1403 23.0451 14.0907 22.9848 14.0364 22.9305C13.982 22.8749 13.9218 22.8264 13.8568 22.7828C13.793 22.7403 13.7245 22.7037 13.6536 22.6741C13.5815 22.6446 13.5071 22.6222 13.4327 22.6068C13.2803 22.5761 13.1232 22.5761 12.9707 22.6068C12.8951 22.6222 12.8207 22.6446 12.7498 22.6741C12.6778 22.7037 12.6092 22.7403 12.5454 22.7828C12.4805 22.8264 12.4202 22.8749 12.3659 22.9305C12.3115 22.9848 12.2619 23.0451 12.2194 23.1101C12.1768 23.1739 12.1402 23.2424 12.1107 23.3133C12.0811 23.3853 12.0587 23.4586 12.0433 23.5342C12.028 23.611 12.0197 23.6878 12.0197 23.7658C12.0197 23.8426 12.028 23.9205 12.0433 23.9961C12.0587 24.0717 12.0811 24.1462 12.1107 24.2171C12.1402 24.2878 12.1768 24.3576 12.2194 24.4213C12.2619 24.4864 12.3115 24.5467 12.3659 24.601C12.4202 24.6554 12.4805 24.705 12.5454 24.7475C12.6092 24.79 12.6778 24.8267 12.7498 24.8562C12.8207 24.8857 12.8951 24.9081 12.9707 24.9234C13.0464 24.9389 13.1243 24.9471 13.2011 24.9471C13.2779 24.9471 13.3559 24.9388 13.4327 24.9234C13.5071 24.9082 13.5815 24.8857 13.6536 24.8562C13.7245 24.8267 13.793 24.7899 13.8568 24.7475C13.9218 24.705 13.982 24.6554 14.0364 24.601C14.0907 24.5467 14.1403 24.4864 14.1841 24.4213C14.2266 24.3576 14.2632 24.2879 14.2928 24.2171C14.3223 24.1463 14.3447 24.0717 14.3601 23.9961C14.3755 23.9206 14.3825 23.8426 14.3825 23.7658C14.3825 23.6878 14.3755 23.611 14.3601 23.5342ZM47.8774 22.5839H17.4188C16.7663 22.5839 16.2374 23.1129 16.2374 23.7653C16.2374 24.4177 16.7663 24.9467 17.4188 24.9467H47.8774C48.5299 24.9467 49.0588 24.4177 49.0588 23.7653C49.0588 23.1129 48.5299 22.5839 47.8774 22.5839Z" fill="#2F384F"/>
</svg>
