<svg width="52" height="52" viewBox="0 0 52 52" fill="none" xmlns="http://www.w3.org/2000/svg">
<rect y="23.842" width="41" height="27" fill="#31AAFF"/>
<path fill-rule="evenodd" clip-rule="evenodd" d="M30.3832 0.838448C34.8208 0.316855 39.3908 0 40.2154 0C42.2319 0 43.8715 1.64033 43.8715 3.65602C43.8715 5.67171 42.2311 7.31204 40.2154 7.31204C39.3908 7.31204 34.8216 6.99519 30.384 6.4736C21.7915 5.46372 21.1082 4.63421 21.1082 3.65602C21.1082 2.67702 21.7907 1.84832 30.3832 0.838448ZM23.3961 3.65602C26.7133 4.67565 38.298 5.68714 40.2154 5.68714C41.3358 5.68714 42.2466 4.77639 42.2466 3.65602C42.2466 2.53565 41.3358 1.6249 40.2154 1.6249C38.298 1.6249 26.7133 2.6364 23.3961 3.65602ZM51.9976 12.1909C51.9976 11.7416 51.6344 11.3784 51.1851 11.3784H51.1843V6.09344C51.1843 5.97482 51.1737 5.85702 51.1542 5.74327C50.9714 3.43023 49.0313 1.62497 46.7158 1.62497C45.5955 1.62497 44.6847 2.53572 44.6847 3.65609C44.6847 4.77646 45.5955 5.68721 46.7158 5.68721C46.9393 5.68721 47.1221 5.87002 47.1221 6.09344V11.3784H47.1212C46.672 11.3784 46.3088 11.7416 46.3088 12.1909V21.95C46.3088 22.2872 46.5143 22.5764 46.806 22.6991C46.9035 22.7405 47.0107 22.7633 47.1237 22.7633H47.1245V26.0001C47.1245 26.0008 47.1243 26.0014 47.1241 26.0019L47.1238 26.0033L47.1237 26.0041C47.1237 27.7964 45.667 29.2539 43.8771 29.2539H41.4373V25.1966C41.4373 23.8528 40.3438 22.7592 39 22.7592H9.74939V21.1229C9.74939 20.6737 9.38623 20.3105 8.93694 20.3105H3.37248C3.36272 20.3105 3.35369 20.3132 3.34459 20.3158L3.34457 20.3158C3.33701 20.3181 3.3294 20.3203 3.32129 20.321C3.31378 20.3203 3.30658 20.3182 3.29927 20.316C3.29 20.3133 3.28056 20.3105 3.27011 20.3105C2.82082 20.3105 2.45766 20.6737 2.45766 21.1229V22.7592H2.43735C1.09356 22.7592 0 23.8528 0 25.1966V48.747C0 50.0908 1.09356 51.1844 2.43735 51.1844H39C40.3438 51.1844 41.4373 50.0908 41.4373 48.747V33.3162H43.8771C47.9053 33.3162 51.1819 30.0396 51.1859 26.0106L51.1861 26.0088L51.1864 26.0072C51.1866 26.0064 51.1867 26.0057 51.1867 26.0049V22.7633H51.1876C51.6368 22.7633 52 22.4001 52 21.9508C52 21.9468 51.9976 21.9427 51.9976 21.9386V12.1909ZM46.7158 4.06232C46.4924 4.06232 46.3096 3.87952 46.3096 3.65609C46.3096 3.43267 46.4924 3.24987 46.7158 3.24987C48.1961 3.24987 49.4359 4.41573 49.5367 5.90333C49.5391 5.93826 49.544 5.97238 49.5513 6.00732C49.557 6.03494 49.5602 6.06419 49.5602 6.09344V11.3784H48.7478V6.09344C48.747 4.97307 47.8362 4.06232 46.7158 4.06232ZM4.08337 21.9354H8.12449V22.7592H4.08337V21.9354ZM39.8125 48.747C39.8125 49.1955 39.4485 49.5595 39 49.5595H2.43735C1.98888 49.5595 1.6249 49.1955 1.6249 48.747V25.1966C1.6249 24.7481 1.98888 24.3841 2.43735 24.3841H39C39.4485 24.3841 39.8125 24.7481 39.8125 25.1966V29.2539H33.6313C32.8758 27.7777 31.3484 26.8166 29.6576 26.8166C27.1943 26.8166 25.1892 28.8217 25.1892 31.2851C25.1892 33.7484 27.1943 35.7535 29.6576 35.7535C31.3484 35.7535 32.8749 34.7924 33.6305 33.3162H39.8125V48.747ZM29.6576 33.3162H31.6449C31.1241 33.8248 30.4157 34.1286 29.6576 34.1286C28.0896 34.1286 26.8141 32.8531 26.8141 31.2851C26.8141 29.717 28.0896 28.4415 29.6576 28.4415C30.4173 28.4415 31.1257 28.7453 31.6457 29.2539H29.6576C28.5373 29.2539 27.6265 30.1647 27.6265 31.2851C27.6265 32.4054 28.5373 33.3162 29.6576 33.3162ZM49.5616 26.0015L49.5614 26.0021C49.5612 26.0027 49.561 26.0033 49.561 26.0041C49.561 29.1394 47.0108 31.6913 43.8771 31.6913H29.6576C29.4342 31.6913 29.2514 31.5085 29.2514 31.2851C29.2514 31.0616 29.4342 30.8788 29.6576 30.8788H33.0545H33.0667H43.8779C46.5623 30.8788 48.7453 28.695 48.7494 26.0106C48.7494 26.0096 48.7495 26.0088 48.7497 26.008C48.7499 26.0069 48.7502 26.0059 48.7502 26.0049V22.7633H49.5627V26.0001H49.5618L49.5616 26.0015ZM50.3727 21.1384H47.9337V13.0033H50.3727V21.1384ZM4.87464 38.1876H18.6903C19.1396 38.1876 19.5028 38.5508 19.5028 39C19.5028 39.4493 19.1396 39.8125 18.6903 39.8125H4.87464C4.42535 39.8125 4.06219 39.4493 4.06219 39C4.06219 38.5508 4.42535 38.1876 4.87464 38.1876ZM18.6903 40.624H4.87464C4.42535 40.624 4.06219 40.9872 4.06219 41.4364C4.06219 41.8857 4.42535 42.2489 4.87464 42.2489H18.6903C19.1396 42.2489 19.5028 41.8857 19.5028 41.4364C19.5028 40.9872 19.1396 40.624 18.6903 40.624ZM4.87464 43.0606H18.6903C19.1396 43.0606 19.5028 43.4238 19.5028 43.8731C19.5028 44.3224 19.1396 44.6855 18.6903 44.6855H4.87464C4.42535 44.6855 4.06219 44.3224 4.06219 43.8731C4.06219 43.4238 4.42535 43.0606 4.87464 43.0606ZM4.87464 45.4973H18.6903C19.1396 45.4973 19.5028 45.8604 19.5028 46.3097C19.5028 46.759 19.1396 47.1222 18.6903 47.1222H4.87464C4.42535 47.1222 4.06219 46.759 4.06219 46.3097C4.06219 45.8604 4.42535 45.4973 4.87464 45.4973ZM36.5676 45.4973H22.7519C22.3026 45.4973 21.9394 45.8604 21.9394 46.3097C21.9394 46.759 22.3026 47.1222 22.7519 47.1222H36.5676C37.0168 47.1222 37.38 46.759 37.38 46.3097C37.38 45.8604 37.0168 45.4973 36.5676 45.4973ZM22.7519 43.0606H36.5676C37.0168 43.0606 37.38 43.4238 37.38 43.8731C37.38 44.3224 37.0168 44.6855 36.5676 44.6855H22.7519C22.3026 44.6855 21.9394 44.3224 21.9394 43.8731C21.9394 43.4238 22.3026 43.0606 22.7519 43.0606ZM36.5676 40.624H22.7519C22.3026 40.624 21.9394 40.9872 21.9394 41.4364C21.9394 41.8857 22.3026 42.2489 22.7519 42.2489H36.5676C37.0168 42.2489 37.38 41.8857 37.38 41.4364C37.38 40.9872 37.0168 40.624 36.5676 40.624ZM22.7519 39.8125C22.3026 39.8125 21.9394 39.4493 21.9394 39C21.9394 38.5508 22.3026 38.1876 22.7519 38.1876H36.5676C37.0168 38.1876 37.38 38.5508 37.38 39C37.38 39.4493 37.0168 39.8125 36.5676 39.8125H22.7519ZM6.90576 34.1238C8.47379 34.1238 9.74933 32.8482 9.74933 31.2802C9.74933 29.7122 8.47379 28.4366 6.90576 28.4366C5.33773 28.4366 4.06219 29.7122 4.06219 31.2802C4.06219 32.8482 5.33773 34.1238 6.90576 34.1238ZM6.90576 30.0615C7.57766 30.0615 8.12444 30.6083 8.12444 31.2802C8.12444 31.9521 7.57766 32.4989 6.90576 32.4989C6.23387 32.4989 5.68709 31.9521 5.68709 31.2802C5.68709 30.6083 6.23387 30.0615 6.90576 30.0615ZM13.8231 31.2802C13.8231 29.7122 15.0986 28.4366 16.6667 28.4366C18.2339 28.4366 19.5102 29.7122 19.5102 31.2802C19.5102 32.8482 18.2347 34.1238 16.6667 34.1238C15.0986 34.1238 13.8231 32.8482 13.8231 31.2802ZM15.448 31.2802C15.448 31.9521 15.9948 32.4989 16.6667 32.4989C17.3386 32.4989 17.8853 31.9521 17.8853 31.2802C17.8853 30.6083 17.3386 30.0615 16.6667 30.0615C15.9948 30.0615 15.448 30.6083 15.448 31.2802Z" fill="#2F384F"/>
</svg>
