<svg width="52" height="53" viewBox="0 0 52 53" fill="none" xmlns="http://www.w3.org/2000/svg">
<path d="M30 36.5L15.5 21.5L18.5 18.5L21 14.5L36.5 30L32.5 32.5L30 36.5Z" fill="#31AAFF"/>
<path fill-rule="evenodd" clip-rule="evenodd" d="M40.2387 28.5559C39.0698 28.5559 37.9271 28.7265 36.839 29.0557L33.7871 26.0033L37.7987 21.9912C38.7649 22.2586 39.7736 22.3968 40.8034 22.3968C43.7943 22.3968 46.6063 21.2318 48.7211 19.1167C50.2283 17.6094 51.2688 15.7178 51.7305 13.6461C52.1794 11.6315 52.0659 9.53529 51.4023 7.58392C51.2892 7.25167 51.0127 7.00128 50.6709 6.92175C50.3291 6.84201 49.9705 6.94461 49.7223 7.19275L44.9211 11.9945L40.0067 7.0797L44.8081 2.27772C45.0562 2.02957 45.1586 1.6709 45.0791 1.3292C44.9996 0.987403 44.7492 0.710914 44.417 0.59786C42.4661 -0.0659359 40.37 -0.179396 38.3555 0.269568C36.284 0.731331 34.3925 1.77207 32.8855 3.27935C29.9339 6.23134 28.9777 10.4348 30.0171 14.1976L26 18.2152L22.0968 14.3114C22.0837 14.2983 22.0703 14.2856 22.0567 14.2734C23.0967 10.5102 22.1408 6.3059 19.1888 3.3535C17.6816 1.84612 15.7902 0.805379 13.7186 0.343718C11.7042 -0.105246 9.60829 0.00821423 7.65713 0.67201C7.32488 0.785064 7.07459 1.06155 6.99506 1.40335C6.91542 1.74505 7.01791 2.10372 7.26606 2.35187L12.0673 7.15385L7.15301 12.0689L2.35184 7.2669C2.10369 7.01876 1.74482 6.91637 1.40322 6.9958C1.06142 7.07544 0.784933 7.32582 0.67188 7.65807C0.00818489 9.60934 -0.105377 11.7056 0.343587 13.7202C0.805248 15.7919 1.84589 17.6836 3.35286 19.191C5.46787 21.3062 8.27969 22.471 11.2707 22.471C12.3007 22.471 13.3095 22.3329 14.2757 22.0653C14.2804 22.0702 14.2851 22.0752 14.29 22.08L18.2128 26.0032L14.2012 30.0153C13.2349 29.7478 12.2263 29.6097 11.1966 29.6097C8.20574 29.6097 5.39372 30.7746 3.27882 32.8897C1.77184 34.3971 0.731098 36.2889 0.269539 38.3605C-0.179425 40.3752 -0.0658637 42.4714 0.597831 44.4226C0.710783 44.7549 0.987373 45.0053 1.32917 45.0849C1.67077 45.1642 2.02954 45.0621 2.27779 44.8138L7.07886 40.012L11.9932 44.927L7.19181 49.729C6.94376 49.9772 6.84127 50.3359 6.92091 50.6776C7.00044 51.0194 7.25083 51.2958 7.58308 51.4089C8.75211 51.8066 9.97305 52.0067 11.1974 52.0067C12.0164 52.0067 12.8372 51.9171 13.6445 51.7371C15.716 51.2753 17.6075 50.2346 19.1146 48.7273C22.0661 45.7753 23.0223 41.5718 21.9829 37.8091L26 33.7914L29.0128 36.8046C29.0276 36.8194 29.0427 36.8335 29.0582 36.8472C27.8525 40.8411 28.8248 45.3577 31.975 48.5084C34.1823 50.7161 37.1171 51.9318 40.2386 51.9318C43.3601 51.9318 46.2951 50.7161 48.5023 48.5085C53.0589 43.9513 53.0589 36.5363 48.5023 31.9793C46.2952 29.7718 43.3603 28.5559 40.2387 28.5559ZM34.322 4.71563C36.0779 2.95959 38.3954 2.02418 40.78 2.02418C41.2167 2.02418 41.6559 2.05567 42.094 2.11906L37.8522 6.36146C37.4555 6.75811 37.4555 7.40119 37.8522 7.79794L44.2029 14.1495C44.3933 14.34 44.6518 14.447 44.9211 14.447C45.1905 14.447 45.4489 14.3399 45.6394 14.1495L49.8809 9.90736C50.291 12.7381 49.3619 15.6028 47.2846 17.6803C45.5533 19.4118 43.2516 20.3653 40.8033 20.3653C39.8069 20.3653 38.8347 20.2073 37.9156 19.9033C37.8682 19.8831 37.8197 19.8666 37.7703 19.8539C36.4872 19.4054 35.3115 18.6699 34.3219 17.6802C30.7482 14.106 30.7482 8.29008 34.322 4.71563ZM30.8187 16.269C31.3393 17.2962 32.0283 18.2593 32.8856 19.1166C33.7328 19.964 34.692 20.6588 35.7296 21.1874L32.3508 24.5667L27.4364 19.6518L30.8187 16.269ZM11.2708 20.4395C8.82261 20.4396 6.5208 19.4859 4.78955 17.7546C2.71233 15.6771 1.78332 12.812 2.19328 9.98161L6.43477 14.2237C6.62532 14.4143 6.88373 14.5212 7.15311 14.5212C7.42249 14.5212 7.6809 14.4142 7.87145 14.2237L14.2222 7.87209C14.6187 7.47544 14.6187 6.83236 14.2222 6.43561L9.98016 2.19321C12.8105 1.78335 15.675 2.71246 17.752 4.78978C21.3259 8.36412 21.3259 14.1801 17.752 17.7544C16.0209 19.4859 13.7193 20.4395 11.2708 20.4395ZM17.678 47.2909C15.6006 49.3687 12.7362 50.2976 9.90611 49.8874L14.1479 45.6451C14.5445 45.2484 14.5445 44.6054 14.1479 44.2086L7.7971 37.8572C7.60665 37.6667 7.34824 37.5597 7.07886 37.5597C6.80948 37.5597 6.55107 37.6667 6.36052 37.8572L2.11913 42.0993C1.70917 39.2688 2.63828 36.4036 4.7154 34.3263C6.44665 32.5948 8.74835 31.6413 11.1967 31.6413C12.196 31.6413 13.171 31.8001 14.0925 32.106C14.1351 32.1238 14.1787 32.1386 14.2229 32.1504C15.5086 32.5987 16.6868 33.3351 17.678 34.3264C21.2519 37.9007 21.2519 43.7166 17.678 47.2909ZM21.1814 35.7375C20.6608 34.7104 19.9718 33.7473 19.1145 32.8899C18.2673 32.0425 17.3081 31.3477 16.2705 30.8191L19.6493 27.4398L24.5637 32.3548L21.1814 35.7375ZM16.3447 21.2616C17.0869 20.8835 17.7889 20.4204 18.4385 19.8773L25.9213 27.3612C26.1197 27.5596 26.3796 27.6587 26.6397 27.6587C26.8996 27.6587 27.1595 27.5596 27.3578 27.3613C27.7546 26.9646 27.7546 26.3215 27.3579 25.9247L19.8745 18.4403C20.4216 17.7845 20.882 17.0803 21.2557 16.3432L34.802 29.8913C33.7731 30.4333 32.8207 31.1335 31.9752 31.9792C31.1199 32.8347 30.4252 33.7908 29.8909 34.8097L16.3447 21.2616ZM47.0659 47.0721C45.2422 48.896 42.8177 49.9004 40.2387 49.9004C37.6598 49.9004 35.2352 48.8959 33.4115 47.0721C29.6468 43.3071 29.6468 37.1808 33.4115 33.4157C35.2352 31.5918 37.6597 30.5874 40.2387 30.5874C42.8177 30.5874 45.2422 31.5919 47.0659 33.4157C50.8306 37.1808 50.8306 43.307 47.0659 47.0721ZM41.3734 14.4482L37.5551 10.6294C37.1586 10.2328 36.5152 10.2325 36.1184 10.6293C35.7216 11.026 35.7216 11.6691 36.1183 12.0659L39.9366 15.8847C40.1349 16.083 40.3949 16.1823 40.6549 16.1823C40.9149 16.1823 41.175 16.0832 41.3733 15.8849C41.7701 15.4881 41.7701 14.845 41.3734 14.4482ZM15.8837 39.9411L12.0654 36.1223C11.6688 35.7256 11.0255 35.7255 10.6287 36.1222C10.2319 36.5189 10.2319 37.162 10.6286 37.5588L14.4469 41.3777C14.6452 41.576 14.9053 41.6752 15.1653 41.6752C15.4253 41.6752 15.6853 41.5761 15.8836 41.3778C16.2804 40.9811 16.2804 40.3379 15.8837 39.9411ZM29.7976 28.3924C29.8534 28.4289 29.9052 28.4716 29.952 28.5183C30.1409 28.7073 30.2497 28.9694 30.2497 29.2366C30.2497 29.3036 30.2426 29.3696 30.2294 29.4357C30.2172 29.5007 30.1969 29.5647 30.1715 29.6256C30.1461 29.6866 30.1146 29.7455 30.078 29.8014C30.0416 29.8563 29.9988 29.9081 29.9521 29.9558C29.9053 30.0025 29.8535 30.0452 29.7977 30.0818C29.7428 30.1184 29.6839 30.1498 29.6219 30.1752C29.561 30.2006 29.4971 30.2199 29.432 30.2331C29.3668 30.2464 29.2998 30.2535 29.2338 30.2535C29.1678 30.2535 29.1007 30.2464 29.0357 30.2331C28.9707 30.2199 28.9066 30.2006 28.8448 30.1752C28.7837 30.1498 28.7248 30.1184 28.67 30.0818C28.614 30.0452 28.5622 30.0025 28.5155 29.9558C28.4688 29.9081 28.4261 29.8563 28.3895 29.8014C28.352 29.7455 28.3215 29.6866 28.2961 29.6256C28.2707 29.5647 28.2504 29.5007 28.2372 29.4357C28.225 29.3696 28.218 29.3036 28.218 29.2366C28.218 29.1705 28.225 29.1045 28.2372 29.0385C28.2504 28.9735 28.2707 28.9095 28.2961 28.8485C28.3215 28.7875 28.352 28.7286 28.3895 28.6728C28.4261 28.6179 28.4688 28.5651 28.5155 28.5183C28.5622 28.4716 28.614 28.4289 28.67 28.3924C28.7248 28.3558 28.7837 28.3243 28.8448 28.2989C28.9066 28.2735 28.9707 28.2542 29.0357 28.241C29.1658 28.2146 29.3009 28.2146 29.4319 28.241C29.497 28.2542 29.561 28.2735 29.6218 28.2989C29.6838 28.3243 29.7427 28.3558 29.7976 28.3924ZM45.5554 35.6454L47.1421 41.5678C47.2361 41.9183 47.1358 42.2923 46.8792 42.5489L42.5442 46.8845C42.3513 47.0775 42.0918 47.182 41.8258 47.182C41.7383 47.182 41.6499 47.1707 41.563 47.1474L35.6412 45.5603C35.2908 45.4665 35.017 45.1926 34.9231 44.8421L33.3363 38.9196C33.2424 38.5691 33.3426 38.1951 33.5992 37.9385L37.9343 33.603C38.1907 33.3465 38.5644 33.246 38.9155 33.3401L44.8372 34.927C45.1877 35.021 45.4614 35.2947 45.5554 35.6454ZM36.7336 43.7499L41.5224 45.0332L45.0282 41.5271L43.745 36.7375L38.9562 35.4542L35.4504 38.9603L36.7336 43.7499Z" fill="#2F384F"/>
</svg>
